<svg width="328" height="106" viewBox="0 0 328 106" fill="none" xmlns="http://www.w3.org/2000/svg">
<path fill-rule="evenodd" clip-rule="evenodd" d="M288.51 7.79413C291.846 7.79413 294.55 5.52592 294.55 2.72795C294.55 1.72356 294.201 0.787442 293.6 0H296C307.201 0 312.802 0 317.08 2.17987C320.843 4.09734 323.903 7.15695 325.82 10.9202C328 15.1984 328 20.799 328 32V74C328 85.201 328 90.8016 325.82 95.0798C323.903 98.843 320.843 101.903 317.08 103.82C312.802 106 307.201 106 296 106H293.41C294.127 105.167 294.55 104.144 294.55 103.038C294.55 100.24 291.846 97.9721 288.51 97.9721C285.174 97.9721 282.47 100.24 282.47 103.038C282.47 104.144 282.893 105.167 283.609 106H32C20.799 106 15.1984 106 10.9202 103.82C7.15695 101.903 4.09734 98.843 2.17987 95.0798C0 90.8016 0 85.201 0 74V32C0 20.799 0 15.1984 2.17987 10.9202C4.09734 7.15695 7.15695 4.09734 10.9202 2.17987C15.1984 0 20.799 0 32 0H283.42C282.819 0.787442 282.47 1.72356 282.47 2.72795C282.47 5.52592 285.174 7.79413 288.51 7.79413ZM294.55 19.4463C294.55 22.2443 291.846 24.5125 288.51 24.5125C285.174 24.5125 282.47 22.2443 282.47 19.4463C282.47 16.6483 285.174 14.3801 288.51 14.3801C291.846 14.3801 294.55 16.6483 294.55 19.4463ZM288.51 41.2309C291.846 41.2309 294.55 38.9627 294.55 36.1647C294.55 33.3667 291.846 31.0985 288.51 31.0985C285.174 31.0985 282.47 33.3667 282.47 36.1647C282.47 38.9627 285.174 41.2309 288.51 41.2309ZM294.55 52.8831C294.55 55.6811 291.846 57.9493 288.51 57.9493C285.174 57.9493 282.47 55.6811 282.47 52.8831C282.47 50.0851 285.174 47.8169 288.51 47.8169C291.846 47.8169 294.55 50.0851 294.55 52.8831ZM288.51 74.6676C291.846 74.6676 294.55 72.3994 294.55 69.6015C294.55 66.8035 291.846 64.5353 288.51 64.5353C285.174 64.5353 282.47 66.8035 282.47 69.6015C282.47 72.3994 285.174 74.6676 288.51 74.6676ZM294.55 86.3199C294.55 89.1178 291.846 91.386 288.51 91.386C285.174 91.386 282.47 89.1178 282.47 86.3199C282.47 83.5219 285.174 81.2537 288.51 81.2537C291.846 81.2537 294.55 83.5219 294.55 86.3199Z" fill="#FCF8F4"/>
<path fill-rule="evenodd" clip-rule="evenodd" d="M288.51 7.79413C291.846 7.79413 294.55 5.52592 294.55 2.72795C294.55 1.72356 294.201 0.787442 293.6 0H296C307.201 0 312.802 0 317.08 2.17987C320.843 4.09734 323.903 7.15695 325.82 10.9202C328 15.1984 328 20.799 328 32V74C328 85.201 328 90.8016 325.82 95.0798C323.903 98.843 320.843 101.903 317.08 103.82C312.802 106 307.201 106 296 106H293.411C294.127 105.167 294.55 104.144 294.55 103.038C294.55 100.24 291.846 97.9721 288.51 97.9721C288.03 97.9721 287.564 98.019 287.116 98.1076V91.2505C287.564 91.3391 288.03 91.386 288.51 91.386C291.846 91.386 294.55 89.1178 294.55 86.3199C294.55 83.5219 291.846 81.2537 288.51 81.2537C288.03 81.2537 287.564 81.3006 287.116 81.3892V74.5321C287.564 74.6207 288.03 74.6676 288.51 74.6676C291.846 74.6676 294.55 72.3994 294.55 69.6015C294.55 66.8035 291.846 64.5353 288.51 64.5353C288.03 64.5353 287.564 64.5822 287.116 64.6709V57.8137C287.564 57.9024 288.03 57.9493 288.51 57.9493C291.846 57.9493 294.55 55.6811 294.55 52.8831C294.55 50.0851 291.846 47.8169 288.51 47.8169C288.03 47.8169 287.564 47.8638 287.116 47.9525V41.0953C287.564 41.184 288.03 41.2309 288.51 41.2309C291.846 41.2309 294.55 38.9627 294.55 36.1647C294.55 33.3667 291.846 31.0985 288.51 31.0985C288.03 31.0985 287.564 31.1454 287.116 31.2341V24.3769C287.564 24.4656 288.03 24.5125 288.51 24.5125C291.846 24.5125 294.55 22.2443 294.55 19.4463C294.55 16.6483 291.846 14.3801 288.51 14.3801C288.03 14.3801 287.564 14.4271 287.116 14.5157V7.65856C287.564 7.74721 288.03 7.79413 288.51 7.79413Z" fill="#8A8886"/>
<circle cx="40.5" cy="41.5" r="26.5" fill="#106C49"/>
<path d="M84.3492 35V25.3877H84.1998L81.2613 27.4297V25.1719L84.3575 23.022H86.856V35H84.3492ZM94.3171 35.3071C91.3621 35.3071 89.5608 32.8833 89.5608 29.0151V28.9985C89.5608 25.1221 91.3621 22.7148 94.3171 22.7148C97.2805 22.7148 99.0735 25.1221 99.0735 28.9985V29.0151C99.0735 32.8833 97.2805 35.3071 94.3171 35.3071ZM94.3171 33.3232C95.7366 33.3232 96.5418 31.7212 96.5418 29.0151V28.9985C96.5418 26.2842 95.7366 24.6987 94.3171 24.6987C92.906 24.6987 92.1008 26.2842 92.1008 28.9985V29.0151C92.1008 31.7212 92.906 33.3232 94.3171 33.3232ZM103.621 29.5879C101.87 29.5879 100.79 28.293 100.79 26.2178V26.2095C100.79 24.1343 101.87 22.8477 103.621 22.8477C105.381 22.8477 106.452 24.1343 106.452 26.2095V26.2178C106.452 28.293 105.381 29.5879 103.621 29.5879ZM105.464 35H103.546L111.606 23.022H113.524L105.464 35ZM103.621 28.2598C104.352 28.2598 104.758 27.521 104.758 26.2178V26.2095C104.758 24.8979 104.352 24.1758 103.621 24.1758C102.899 24.1758 102.492 24.8979 102.492 26.2095V26.2178C102.492 27.521 102.899 28.2598 103.621 28.2598ZM113.441 35.1743C111.689 35.1743 110.61 33.8794 110.61 31.8042V31.7959C110.61 29.7207 111.689 28.4341 113.441 28.4341C115.201 28.4341 116.271 29.7207 116.271 31.7959V31.8042C116.271 33.8794 115.201 35.1743 113.441 35.1743ZM113.441 33.8462C114.171 33.8462 114.578 33.1074 114.578 31.8042V31.7959C114.578 30.4844 114.171 29.7622 113.441 29.7622C112.719 29.7622 112.312 30.4844 112.312 31.7959V31.8042C112.312 33.1074 112.719 33.8462 113.441 33.8462ZM125.383 35.1411C123.1 35.1411 121.673 33.3564 121.673 30.4346V30.418C121.673 27.4795 123.067 25.7114 125.383 25.7114C126.637 25.7114 127.658 26.3257 128.114 27.3218H128.264V22.3662H130.687V35H128.264V33.5806H128.114C127.641 34.5684 126.67 35.1411 125.383 35.1411ZM126.205 33.1323C127.492 33.1323 128.288 32.1196 128.288 30.4429V30.4263C128.288 28.7495 127.483 27.7202 126.205 27.7202C124.927 27.7202 124.138 28.7495 124.138 30.418V30.4346C124.138 32.1196 124.927 33.1323 126.205 33.1323ZM136.804 35.1909C134.023 35.1909 132.338 33.373 132.338 30.4429V30.4346C132.338 27.5293 134.04 25.6616 136.704 25.6616C139.369 25.6616 141.029 27.4878 141.029 30.252V31.0073H134.737C134.762 32.5098 135.567 33.3813 136.854 33.3813C137.916 33.3813 138.505 32.8169 138.671 32.4683L138.696 32.4185H140.954L140.938 32.5015C140.655 33.647 139.477 35.1909 136.804 35.1909ZM136.746 27.4795C135.691 27.4795 134.911 28.1934 134.762 29.4883H138.705C138.555 28.1602 137.8 27.4795 136.746 27.4795ZM146.82 35V23.022H151.535C155.096 23.022 157.155 25.1719 157.155 28.9238V28.9404C157.155 32.8086 155.121 35 151.535 35H146.82ZM149.327 32.9331H151.137C153.353 32.9331 154.598 31.5386 154.598 28.9819V28.9653C154.598 26.5 153.312 25.0889 151.137 25.0889H149.327V32.9331ZM162.906 35.1909C160.125 35.1909 158.44 33.373 158.44 30.4429V30.4346C158.44 27.5293 160.142 25.6616 162.806 25.6616C165.471 25.6616 167.131 27.4878 167.131 30.252V31.0073H160.839C160.864 32.5098 161.669 33.3813 162.956 33.3813C164.018 33.3813 164.608 32.8169 164.774 32.4683L164.799 32.4185H167.056L167.04 32.5015C166.758 33.647 165.579 35.1909 162.906 35.1909ZM162.848 27.4795C161.794 27.4795 161.013 28.1934 160.864 29.4883H164.807C164.657 28.1602 163.902 27.4795 162.848 27.4795ZM172.343 35.1909C169.861 35.1909 168.45 34.0786 168.275 32.5098L168.267 32.4766H170.649L170.666 32.5098C170.857 33.0742 171.413 33.481 172.368 33.481C173.297 33.481 173.928 33.0825 173.928 32.4766V32.46C173.928 31.9702 173.563 31.6631 172.633 31.4556L171.106 31.1318C169.363 30.7583 168.499 29.9033 168.499 28.5337V28.5254C168.499 26.8071 170.027 25.6616 172.309 25.6616C174.708 25.6616 176.037 26.8569 176.136 28.3262V28.3594H173.887L173.878 28.3179C173.746 27.8281 173.206 27.3716 172.301 27.3716C171.463 27.3716 170.865 27.7617 170.865 28.376V28.3843C170.865 28.874 171.205 29.1562 172.152 29.3638L173.671 29.6875C175.497 30.0776 176.352 30.8413 176.352 32.1943V32.2026C176.352 34.0122 174.684 35.1909 172.343 35.1909ZM181.954 35.1909C179.098 35.1909 177.48 33.4561 177.48 30.418V30.4014C177.48 27.3965 179.09 25.6616 181.954 25.6616C184.378 25.6616 185.814 26.9814 186.029 29.0234V29.0483H183.772L183.763 29.0317C183.606 28.1436 183 27.5625 181.962 27.5625C180.659 27.5625 179.945 28.5752 179.945 30.4014V30.418C179.945 32.269 180.667 33.29 181.962 33.29C182.958 33.29 183.547 32.8169 183.763 31.9038L183.78 31.8706H186.021L186.013 31.9204C185.764 33.9126 184.336 35.1909 181.954 35.1909ZM191.573 35.1909C188.759 35.1909 187.066 33.4062 187.066 30.4346V30.418C187.066 27.4712 188.784 25.6616 191.573 25.6616C194.362 25.6616 196.08 27.4629 196.08 30.418V30.4346C196.08 33.4146 194.387 35.1909 191.573 35.1909ZM191.573 33.29C192.86 33.29 193.598 32.2358 193.598 30.4346V30.418C193.598 28.6333 192.851 27.5625 191.573 27.5625C190.286 27.5625 189.548 28.6333 189.548 30.418V30.4346C189.548 32.2358 190.278 33.29 191.573 33.29ZM197.648 35V25.8608H200.072V27.272H200.221C200.636 26.2842 201.541 25.6616 202.844 25.6616C204.878 25.6616 205.974 26.9067 205.974 29.0898V35H203.55V29.6377C203.55 28.3511 203.019 27.6704 201.873 27.6704C200.752 27.6704 200.072 28.4756 200.072 29.7124V35H197.648ZM211.708 35.0332C209.484 35.0332 208.587 34.311 208.587 32.5347V27.687H207.176V25.8608H208.587V23.6777H211.036V25.8608H212.92V27.687H211.036V31.9785C211.036 32.8003 211.385 33.1655 212.206 33.1655C212.522 33.1655 212.688 33.1489 212.92 33.124V34.9253C212.621 34.9834 212.173 35.0332 211.708 35.0332ZM218.522 35.1909C215.708 35.1909 214.015 33.4062 214.015 30.4346V30.418C214.015 27.4712 215.733 25.6616 218.522 25.6616C221.311 25.6616 223.029 27.4629 223.029 30.418V30.4346C223.029 33.4146 221.336 35.1909 218.522 35.1909ZM218.522 33.29C219.809 33.29 220.547 32.2358 220.547 30.4346V30.418C220.547 28.6333 219.8 27.5625 218.522 27.5625C217.235 27.5625 216.497 28.6333 216.497 30.418V30.4346C216.497 32.2358 217.227 33.29 218.522 33.29Z" fill="#106C49"/>
<path d="M315 86.5271H303.022V81.5383C303.022 78.8157 304.475 77.2551 306.832 77.2551H306.849C308.384 77.2551 309.704 78.052 310.244 79.4216L315 76.8982V79.737L310.617 81.9699V84.0202H315V86.5271ZM308.791 84.0202V81.8122C308.791 80.5588 308.077 79.82 306.898 79.82H306.882C305.728 79.82 304.981 80.592 304.981 81.8454V84.0202H308.791ZM315.191 71.6533C315.191 74.4341 313.373 76.1192 310.443 76.1192H310.435C307.529 76.1192 305.662 74.4175 305.662 71.7529C305.662 69.0884 307.488 67.4282 310.252 67.4282H311.007V73.7202C312.51 73.6953 313.381 72.8902 313.381 71.6035C313.381 70.541 312.817 69.9517 312.468 69.7857L312.418 69.7608V67.5029L312.501 67.5195C313.647 67.8018 315.191 68.9805 315.191 71.6533ZM307.479 71.7114C307.479 72.7656 308.193 73.5459 309.488 73.6953V69.7525C308.16 69.9019 307.479 70.6572 307.479 71.7114ZM315.191 62.2166C315.191 64.6985 314.079 66.1097 312.51 66.284L312.477 66.2923V63.91L312.51 63.8934C313.074 63.7025 313.481 63.1463 313.481 62.1917C313.481 61.262 313.083 60.6312 312.477 60.6312H312.46C311.97 60.6312 311.663 60.9964 311.456 61.9261L311.132 63.4534C310.758 65.1966 309.903 66.0599 308.534 66.0599H308.525C306.807 66.0599 305.662 64.5325 305.662 62.2498C305.662 59.8509 306.857 58.5228 308.326 58.4232H308.359V60.6727L308.318 60.681C307.828 60.8138 307.372 61.3533 307.372 62.2581C307.372 63.0965 307.762 63.6942 308.376 63.6942H308.384C308.874 63.6942 309.156 63.3538 309.364 62.4075L309.688 60.8885C310.078 59.0623 310.841 58.2073 312.194 58.2073H312.203C314.012 58.2073 315.191 59.8758 315.191 62.2166ZM318.212 52.5973C318.212 55.129 317.15 56.5982 315.598 56.7975H315.556V54.3985L315.589 54.3902C316.121 54.2574 316.486 53.6266 316.486 52.5475C316.486 51.2525 315.88 50.4972 314.817 50.4972H313.116V50.6466C314.079 51.1529 314.602 52.1158 314.602 53.3858C314.602 55.6852 312.825 57.1046 310.227 57.1046H310.21C307.521 57.1046 305.711 55.6852 305.711 53.3443C305.711 52.0909 306.326 51.1114 307.355 50.6217V50.5055H305.861V48.0816H314.718C316.859 48.0816 318.212 49.8331 318.212 52.5973ZM312.742 52.5641C312.742 51.2525 311.721 50.4723 310.219 50.4723H310.202C308.7 50.4723 307.679 51.2608 307.679 52.5641C307.679 53.8673 308.7 54.6227 310.202 54.6227H310.219C311.721 54.6227 312.742 53.8756 312.742 52.5641ZM315.141 43.5756C315.141 45.3187 314.062 46.5556 312.402 46.5556H312.385C310.742 46.5556 309.779 45.2855 309.646 43.0111L309.513 40.8031H308.758C307.969 40.8031 307.521 41.3427 307.521 42.3388C307.521 43.2103 307.828 43.7665 308.368 43.9574L308.401 43.974V46.2152L308.326 46.2069C306.724 46.016 305.662 44.5053 305.662 42.206C305.662 39.7821 306.807 38.4125 308.758 38.4125H315V40.8031H313.788V40.9525C314.635 41.4174 315.141 42.3803 315.141 43.5756ZM312.252 44.1898C312.95 44.1898 313.373 43.6005 313.373 42.7621C313.373 41.6415 312.634 40.8031 311.671 40.8031H310.999L311.115 42.6459C311.182 43.6835 311.572 44.1898 312.236 44.1898H312.252ZM315.033 32.653C315.033 34.8776 314.311 35.7741 312.535 35.7741H307.687V37.1852H305.861V35.7741H303.678V33.3254H305.861V31.4411H307.687V33.3254H311.979C312.8 33.3254 313.166 32.9767 313.166 32.155C313.166 31.8395 313.149 31.6735 313.124 31.4411H314.925C314.983 31.7399 315.033 32.1882 315.033 32.653ZM315.141 27.3418C315.141 29.0849 314.062 30.3218 312.402 30.3218H312.385C310.742 30.3218 309.779 29.0517 309.646 26.7773L309.513 24.5693H308.758C307.969 24.5693 307.521 25.1089 307.521 26.105C307.521 26.9765 307.828 27.5327 308.368 27.7236L308.401 27.7402V29.9814L308.326 29.9731C306.724 29.7822 305.662 28.2715 305.662 25.9721C305.662 23.5483 306.807 22.1787 308.758 22.1787H315V24.5693H313.788V24.7187C314.635 25.1836 315.141 26.1465 315.141 27.3418ZM312.252 27.956C312.95 27.956 313.373 27.3667 313.373 26.5283C313.373 25.4077 312.634 24.5693 311.671 24.5693H310.999L311.115 26.4121C311.182 27.4497 311.572 27.956 312.236 27.956H312.252ZM315 20.2127H305.861V17.7888H307.28V17.6394C306.292 17.3489 305.711 16.5188 305.711 15.3318C305.711 15.0081 305.761 14.6677 305.828 14.427H307.944C307.861 14.7923 307.803 15.1658 307.803 15.5393C307.803 16.9173 308.592 17.7888 309.887 17.7888H315V20.2127Z" fill="#D8D8D8"/>
<path d="M85.0878 57.1577C82.5312 57.1577 80.9872 55.3647 80.9872 52.5591V52.5508C80.9872 49.7866 82.5644 47.894 84.9965 47.894C87.4286 47.894 88.9062 49.7036 88.9062 52.3765V52.9409H82.4648C82.5063 54.792 83.5273 55.8711 85.121 55.8711C86.3329 55.8711 87.08 55.2983 87.3207 54.7588L87.3539 54.6841H88.7983L88.7817 54.7505C88.4745 55.9624 87.1962 57.1577 85.0878 57.1577ZM84.9882 49.1807C83.6601 49.1807 82.6474 50.0854 82.4897 51.7871H87.4369C87.2875 50.019 86.308 49.1807 84.9882 49.1807ZM90.7394 57V48.0518H92.1837V49.4131H92.3165C92.715 48.4502 93.5617 47.894 94.7321 47.894C95.944 47.894 96.7907 48.5332 97.2057 49.4629H97.3385C97.82 48.5166 98.8409 47.894 100.078 47.894C101.904 47.894 102.925 48.9399 102.925 50.8159V57H101.481V51.1479C101.481 49.8281 100.875 49.1724 99.6129 49.1724C98.3678 49.1724 97.546 50.1104 97.546 51.2476V57H96.1017V50.9238C96.1017 49.8613 95.3712 49.1724 94.2423 49.1724C93.0719 49.1724 92.1837 50.1934 92.1837 51.4551V57H90.7394ZM109.497 59.9883V48.0518H110.941V49.4795H111.074C111.622 48.4834 112.618 47.894 113.863 47.894C116.129 47.894 117.615 49.7285 117.615 52.5176V52.5342C117.615 55.3398 116.137 57.1577 113.863 57.1577C112.634 57.1577 111.564 56.5435 111.074 55.5889H110.941V59.9883H109.497ZM113.531 55.8794C115.166 55.8794 116.137 54.6177 116.137 52.5342V52.5176C116.137 50.4341 115.166 49.1724 113.531 49.1724C111.904 49.1724 110.908 50.4507 110.908 52.5176V52.5342C110.908 54.6011 111.904 55.8794 113.531 55.8794ZM119.465 57V48.0518H120.909V49.3799H121.042C121.382 48.4419 122.22 47.894 123.432 47.894C123.706 47.894 124.013 47.9272 124.155 47.9521V49.355C123.856 49.3052 123.582 49.272 123.266 49.272C121.888 49.272 120.909 50.1436 120.909 51.4551V57H119.465ZM128.959 57.1577C126.411 57.1577 124.834 55.3979 124.834 52.5342V52.5176C124.834 49.6455 126.411 47.894 128.959 47.894C131.508 47.894 133.085 49.6455 133.085 52.5176V52.5342C133.085 55.3979 131.508 57.1577 128.959 57.1577ZM128.959 55.8794C130.653 55.8794 131.607 54.6426 131.607 52.5342V52.5176C131.607 50.4009 130.653 49.1724 128.959 49.1724C127.266 49.1724 126.311 50.4009 126.311 52.5176V52.5342C126.311 54.6426 127.266 55.8794 128.959 55.8794ZM138.222 57.1577C135.956 57.1577 134.47 55.3232 134.47 52.5342V52.5176C134.47 49.7119 135.947 47.894 138.222 47.894C139.45 47.894 140.521 48.5083 141.011 49.4629H141.144V44.499H142.588V57H141.144V55.5723H141.011C140.463 56.5684 139.467 57.1577 138.222 57.1577ZM138.554 55.8794C140.181 55.8794 141.177 54.6011 141.177 52.5342V52.5176C141.177 50.4507 140.181 49.1724 138.554 49.1724C136.919 49.1724 135.947 50.4341 135.947 52.5176V52.5342C135.947 54.6177 136.919 55.8794 138.554 55.8794ZM147.949 57.1577C145.915 57.1577 144.87 55.9624 144.87 53.8457V48.0518H146.314V53.4971C146.314 55.1074 146.895 55.8794 148.323 55.8794C149.9 55.8794 150.738 54.9165 150.738 53.3477V48.0518H152.182V57H150.738V55.6636H150.605C150.165 56.6182 149.261 57.1577 147.949 57.1577ZM157.651 57.0664C155.809 57.0664 155.037 56.3857 155.037 54.6758V49.2471H153.626V48.0518H155.037V45.7358H156.531V48.0518H158.49V49.2471H156.531V54.3105C156.531 55.3647 156.896 55.7881 157.826 55.7881C158.083 55.7881 158.224 55.7798 158.49 55.7549V56.9834C158.208 57.0332 157.934 57.0664 157.651 57.0664ZM163.784 57.1577C161.236 57.1577 159.659 55.3979 159.659 52.5342V52.5176C159.659 49.6455 161.236 47.894 163.784 47.894C166.333 47.894 167.91 49.6455 167.91 52.5176V52.5342C167.91 55.3979 166.333 57.1577 163.784 57.1577ZM163.784 55.8794C165.478 55.8794 166.432 54.6426 166.432 52.5342V52.5176C166.432 50.4009 165.478 49.1724 163.784 49.1724C162.091 49.1724 161.137 50.4009 161.137 52.5176V52.5342C161.137 54.6426 162.091 55.8794 163.784 55.8794ZM172.814 57.1577C170.822 57.1577 169.453 56.1948 169.287 54.7173H170.764C171.005 55.4644 171.719 55.9541 172.864 55.9541C174.068 55.9541 174.923 55.3813 174.923 54.5679V54.5513C174.923 53.9453 174.466 53.522 173.362 53.2563L171.976 52.9243C170.299 52.5259 169.544 51.7954 169.544 50.5088V50.5005C169.544 49.0146 170.972 47.894 172.873 47.894C174.749 47.894 176.052 48.832 176.251 50.293H174.832C174.641 49.5874 173.943 49.0977 172.864 49.0977C171.802 49.0977 171.021 49.6455 171.021 50.4341V50.4507C171.021 51.0566 171.47 51.4385 172.524 51.6958L173.902 52.0278C175.587 52.4346 176.4 53.165 176.4 54.4434V54.46C176.4 56.0537 174.848 57.1577 172.814 57.1577ZM182.789 57V45.022H187.305C189.555 45.022 191.148 46.5742 191.148 48.8486V48.8652C191.148 51.1396 189.555 52.7251 187.305 52.7251H184.284V57H182.789ZM186.923 46.3501H184.284V51.397H186.923C188.633 51.397 189.621 50.459 189.621 48.8818V48.8652C189.621 47.2881 188.633 46.3501 186.923 46.3501ZM196.41 57.1577C193.853 57.1577 192.309 55.3647 192.309 52.5591V52.5508C192.309 49.7866 193.886 47.894 196.318 47.894C198.751 47.894 200.228 49.7036 200.228 52.3765V52.9409H193.787C193.828 54.792 194.849 55.8711 196.443 55.8711C197.655 55.8711 198.402 55.2983 198.643 54.7588L198.676 54.6841H200.12L200.104 54.7505C199.797 55.9624 198.518 57.1577 196.41 57.1577ZM196.31 49.1807C194.982 49.1807 193.969 50.0854 193.812 51.7871H198.759C198.609 50.019 197.63 49.1807 196.31 49.1807ZM205.241 57.0664C203.398 57.0664 202.626 56.3857 202.626 54.6758V49.2471H201.215V48.0518H202.626V45.7358H204.12V48.0518H206.079V49.2471H204.12V54.3105C204.12 55.3647 204.485 55.7881 205.415 55.7881C205.672 55.7881 205.813 55.7798 206.079 55.7549V56.9834C205.797 57.0332 205.523 57.0664 205.241 57.0664ZM207.829 57V48.0518H209.273V49.3799H209.406C209.747 48.4419 210.585 47.894 211.797 47.894C212.071 47.894 212.378 47.9272 212.519 47.9521V49.355C212.22 49.3052 211.946 49.272 211.631 49.272C210.253 49.272 209.273 50.1436 209.273 51.4551V57H207.829ZM217.324 57.1577C214.776 57.1577 213.198 55.3979 213.198 52.5342V52.5176C213.198 49.6455 214.776 47.894 217.324 47.894C219.872 47.894 221.449 49.6455 221.449 52.5176V52.5342C221.449 55.3979 219.872 57.1577 217.324 57.1577ZM217.324 55.8794C219.017 55.8794 219.972 54.6426 219.972 52.5342V52.5176C219.972 50.4009 219.017 49.1724 217.324 49.1724C215.631 49.1724 214.676 50.4009 214.676 52.5176V52.5342C214.676 54.6426 215.631 55.8794 217.324 55.8794ZM227.732 57.1577C226.487 57.1577 225.491 56.5684 224.943 55.5723H224.81V57H223.366V44.499H224.81V49.4629H224.943C225.433 48.5083 226.503 47.894 227.732 47.894C230.006 47.894 231.484 49.7119 231.484 52.5176V52.5342C231.484 55.3232 229.998 57.1577 227.732 57.1577ZM227.4 55.8794C229.035 55.8794 230.006 54.6177 230.006 52.5342V52.5176C230.006 50.4341 229.035 49.1724 227.4 49.1724C225.773 49.1724 224.777 50.4507 224.777 52.5176V52.5342C224.777 54.6011 225.773 55.8794 227.4 55.8794ZM233.317 57V48.0518H234.761V49.3799H234.894C235.235 48.4419 236.073 47.894 237.285 47.894C237.559 47.894 237.866 47.9272 238.007 47.9521V49.355C237.708 49.3052 237.434 49.272 237.119 49.272C235.741 49.272 234.761 50.1436 234.761 51.4551V57H233.317ZM241.841 57.1577C240.139 57.1577 238.852 56.1284 238.852 54.5015V54.4849C238.852 52.8911 240.031 51.9697 242.115 51.8452L244.68 51.6875V50.874C244.68 49.77 244.007 49.1724 242.671 49.1724C241.6 49.1724 240.894 49.5708 240.662 50.2681L240.654 50.293H239.209L239.218 50.2432C239.45 48.8403 240.811 47.894 242.721 47.894C244.904 47.894 246.124 49.0146 246.124 50.874V57H244.68V55.6802H244.547C243.982 56.6348 243.044 57.1577 241.841 57.1577ZM240.33 54.4683C240.33 55.373 241.102 55.9043 242.14 55.9043C243.609 55.9043 244.68 54.9414 244.68 53.6631V52.8496L242.289 52.999C240.928 53.082 240.33 53.5635 240.33 54.4517V54.4683ZM251.427 57.1577C249.435 57.1577 248.065 56.1948 247.899 54.7173H249.377C249.617 55.4644 250.331 55.9541 251.477 55.9541C252.68 55.9541 253.535 55.3813 253.535 54.5679V54.5513C253.535 53.9453 253.079 53.522 251.975 53.2563L250.588 52.9243C248.912 52.5259 248.156 51.7954 248.156 50.5088V50.5005C248.156 49.0146 249.584 47.894 251.485 47.894C253.361 47.894 254.664 48.832 254.863 50.293H253.444C253.253 49.5874 252.556 49.0977 251.477 49.0977C250.414 49.0977 249.634 49.6455 249.634 50.4341V50.4507C249.634 51.0566 250.082 51.4385 251.136 51.6958L252.514 52.0278C254.199 52.4346 255.013 53.165 255.013 54.4434V54.46C255.013 56.0537 253.461 57.1577 251.427 57.1577Z" fill="#106C49"/>
</svg>
