<svg width="328" height="106" viewBox="0 0 328 106" fill="none" xmlns="http://www.w3.org/2000/svg">
<path fill-rule="evenodd" clip-rule="evenodd" d="M288.51 7.79413C291.846 7.79413 294.55 5.52592 294.55 2.72795C294.55 1.72356 294.201 0.787442 293.6 0H296C307.201 0 312.802 0 317.08 2.17987C320.843 4.09734 323.903 7.15695 325.82 10.9202C328 15.1984 328 20.799 328 32V74C328 85.201 328 90.8016 325.82 95.0798C323.903 98.843 320.843 101.903 317.08 103.82C312.802 106 307.201 106 296 106H293.41C294.127 105.167 294.55 104.144 294.55 103.038C294.55 100.24 291.846 97.9721 288.51 97.9721C285.174 97.9721 282.47 100.24 282.47 103.038C282.47 104.144 282.893 105.167 283.609 106H32C20.799 106 15.1984 106 10.9202 103.82C7.15695 101.903 4.09734 98.843 2.17987 95.0798C0 90.8016 0 85.201 0 74V32C0 20.799 0 15.1984 2.17987 10.9202C4.09734 7.15695 7.15695 4.09734 10.9202 2.17987C15.1984 0 20.799 0 32 0H283.42C282.819 0.787442 282.47 1.72356 282.47 2.72795C282.47 5.52592 285.174 7.79413 288.51 7.79413ZM294.55 19.4463C294.55 22.2443 291.846 24.5125 288.51 24.5125C285.174 24.5125 282.47 22.2443 282.47 19.4463C282.47 16.6483 285.174 14.3801 288.51 14.3801C291.846 14.3801 294.55 16.6483 294.55 19.4463ZM288.51 41.2309C291.846 41.2309 294.55 38.9627 294.55 36.1647C294.55 33.3667 291.846 31.0985 288.51 31.0985C285.174 31.0985 282.47 33.3667 282.47 36.1647C282.47 38.9627 285.174 41.2309 288.51 41.2309ZM294.55 52.8831C294.55 55.6811 291.846 57.9493 288.51 57.9493C285.174 57.9493 282.47 55.6811 282.47 52.8831C282.47 50.0851 285.174 47.8169 288.51 47.8169C291.846 47.8169 294.55 50.0851 294.55 52.8831ZM288.51 74.6676C291.846 74.6676 294.55 72.3994 294.55 69.6015C294.55 66.8035 291.846 64.5353 288.51 64.5353C285.174 64.5353 282.47 66.8035 282.47 69.6015C282.47 72.3994 285.174 74.6676 288.51 74.6676ZM294.55 86.3199C294.55 89.1178 291.846 91.386 288.51 91.386C285.174 91.386 282.47 89.1178 282.47 86.3199C282.47 83.5219 285.174 81.2537 288.51 81.2537C291.846 81.2537 294.55 83.5219 294.55 86.3199Z" fill="#FCF8F4"/>
<path fill-rule="evenodd" clip-rule="evenodd" d="M288.51 7.79413C291.846 7.79413 294.55 5.52592 294.55 2.72795C294.55 1.72356 294.201 0.787442 293.6 0H296C307.201 0 312.802 0 317.08 2.17987C320.843 4.09734 323.903 7.15695 325.82 10.9202C328 15.1984 328 20.799 328 32V74C328 85.201 328 90.8016 325.82 95.0798C323.903 98.843 320.843 101.903 317.08 103.82C312.802 106 307.201 106 296 106H293.411C294.127 105.167 294.55 104.144 294.55 103.038C294.55 100.24 291.846 97.9721 288.51 97.9721C288.03 97.9721 287.564 98.019 287.116 98.1076V91.2505C287.564 91.3391 288.03 91.386 288.51 91.386C291.846 91.386 294.55 89.1178 294.55 86.3199C294.55 83.5219 291.846 81.2537 288.51 81.2537C288.03 81.2537 287.564 81.3006 287.116 81.3892V74.5321C287.564 74.6207 288.03 74.6676 288.51 74.6676C291.846 74.6676 294.55 72.3994 294.55 69.6015C294.55 66.8035 291.846 64.5353 288.51 64.5353C288.03 64.5353 287.564 64.5822 287.116 64.6709V57.8137C287.564 57.9024 288.03 57.9493 288.51 57.9493C291.846 57.9493 294.55 55.6811 294.55 52.8831C294.55 50.0851 291.846 47.8169 288.51 47.8169C288.03 47.8169 287.564 47.8638 287.116 47.9525V41.0953C287.564 41.184 288.03 41.2309 288.51 41.2309C291.846 41.2309 294.55 38.9627 294.55 36.1647C294.55 33.3667 291.846 31.0985 288.51 31.0985C288.03 31.0985 287.564 31.1454 287.116 31.2341V24.3769C287.564 24.4656 288.03 24.5125 288.51 24.5125C291.846 24.5125 294.55 22.2443 294.55 19.4463C294.55 16.6483 291.846 14.3801 288.51 14.3801C288.03 14.3801 287.564 14.4271 287.116 14.5157V7.65856C287.564 7.74721 288.03 7.79413 288.51 7.79413Z" fill="#8A8886"/>
<path d="M315 86.5271H303.022V81.5383C303.022 78.8157 304.475 77.2551 306.832 77.2551H306.849C308.384 77.2551 309.704 78.052 310.244 79.4216L315 76.8982V79.737L310.617 81.9699V84.0202H315V86.5271ZM308.791 84.0202V81.8122C308.791 80.5588 308.077 79.82 306.898 79.82H306.882C305.728 79.82 304.981 80.592 304.981 81.8454V84.0202H308.791ZM315.191 71.6533C315.191 74.4341 313.373 76.1192 310.443 76.1192H310.435C307.529 76.1192 305.662 74.4175 305.662 71.7529C305.662 69.0884 307.488 67.4282 310.252 67.4282H311.007V73.7202C312.51 73.6953 313.381 72.8902 313.381 71.6035C313.381 70.541 312.817 69.9517 312.468 69.7857L312.418 69.7608V67.5029L312.501 67.5195C313.647 67.8018 315.191 68.9805 315.191 71.6533ZM307.479 71.7114C307.479 72.7656 308.193 73.5459 309.488 73.6953V69.7525C308.16 69.9019 307.479 70.6572 307.479 71.7114ZM315.191 62.2166C315.191 64.6985 314.079 66.1097 312.51 66.284L312.477 66.2923V63.91L312.51 63.8934C313.074 63.7025 313.481 63.1463 313.481 62.1917C313.481 61.262 313.083 60.6312 312.477 60.6312H312.46C311.97 60.6312 311.663 60.9964 311.456 61.9261L311.132 63.4534C310.758 65.1966 309.903 66.0599 308.534 66.0599H308.525C306.807 66.0599 305.662 64.5325 305.662 62.2498C305.662 59.8509 306.857 58.5228 308.326 58.4232H308.359V60.6727L308.318 60.681C307.828 60.8138 307.372 61.3533 307.372 62.2581C307.372 63.0965 307.762 63.6942 308.376 63.6942H308.384C308.874 63.6942 309.156 63.3538 309.364 62.4075L309.688 60.8885C310.078 59.0623 310.841 58.2073 312.194 58.2073H312.203C314.012 58.2073 315.191 59.8758 315.191 62.2166ZM318.212 52.5973C318.212 55.129 317.15 56.5982 315.598 56.7975H315.556V54.3985L315.589 54.3902C316.121 54.2574 316.486 53.6266 316.486 52.5475C316.486 51.2525 315.88 50.4972 314.817 50.4972H313.116V50.6466C314.079 51.1529 314.602 52.1158 314.602 53.3858C314.602 55.6852 312.825 57.1046 310.227 57.1046H310.21C307.521 57.1046 305.711 55.6852 305.711 53.3443C305.711 52.0909 306.326 51.1114 307.355 50.6217V50.5055H305.861V48.0816H314.718C316.859 48.0816 318.212 49.8331 318.212 52.5973ZM312.742 52.5641C312.742 51.2525 311.721 50.4723 310.219 50.4723H310.202C308.7 50.4723 307.679 51.2608 307.679 52.5641C307.679 53.8673 308.7 54.6227 310.202 54.6227H310.219C311.721 54.6227 312.742 53.8756 312.742 52.5641ZM315.141 43.5756C315.141 45.3187 314.062 46.5556 312.402 46.5556H312.385C310.742 46.5556 309.779 45.2855 309.646 43.0111L309.513 40.8031H308.758C307.969 40.8031 307.521 41.3427 307.521 42.3388C307.521 43.2103 307.828 43.7665 308.368 43.9574L308.401 43.974V46.2152L308.326 46.2069C306.724 46.016 305.662 44.5053 305.662 42.206C305.662 39.7821 306.807 38.4125 308.758 38.4125H315V40.8031H313.788V40.9525C314.635 41.4174 315.141 42.3803 315.141 43.5756ZM312.252 44.1898C312.95 44.1898 313.373 43.6005 313.373 42.7621C313.373 41.6415 312.634 40.8031 311.671 40.8031H310.999L311.115 42.6459C311.182 43.6835 311.572 44.1898 312.236 44.1898H312.252ZM315.033 32.653C315.033 34.8776 314.311 35.7741 312.535 35.7741H307.687V37.1852H305.861V35.7741H303.678V33.3254H305.861V31.4411H307.687V33.3254H311.979C312.8 33.3254 313.166 32.9767 313.166 32.155C313.166 31.8395 313.149 31.6735 313.124 31.4411H314.925C314.983 31.7399 315.033 32.1882 315.033 32.653ZM315.141 27.3418C315.141 29.0849 314.062 30.3218 312.402 30.3218H312.385C310.742 30.3218 309.779 29.0517 309.646 26.7773L309.513 24.5693H308.758C307.969 24.5693 307.521 25.1089 307.521 26.105C307.521 26.9765 307.828 27.5327 308.368 27.7236L308.401 27.7402V29.9814L308.326 29.9731C306.724 29.7822 305.662 28.2715 305.662 25.9721C305.662 23.5483 306.807 22.1787 308.758 22.1787H315V24.5693H313.788V24.7187C314.635 25.1836 315.141 26.1465 315.141 27.3418ZM312.252 27.956C312.95 27.956 313.373 27.3667 313.373 26.5283C313.373 25.4077 312.634 24.5693 311.671 24.5693H310.999L311.115 26.4121C311.182 27.4497 311.572 27.956 312.236 27.956H312.252ZM315 20.2127H305.861V17.7888H307.28V17.6394C306.292 17.3489 305.711 16.5188 305.711 15.3318C305.711 15.0081 305.761 14.6677 305.828 14.427H307.944C307.861 14.7923 307.803 15.1658 307.803 15.5393C307.803 16.9173 308.592 17.7888 309.887 17.7888H315V20.2127Z" fill="#D8D8D8"/>
</svg>
