<svg width="353" height="188" viewBox="0 0 353 188" fill="none" xmlns="http://www.w3.org/2000/svg">
<rect width="353" height="188" rx="20" fill="#E1ECD6"/>
<path d="M18.7093 73V61.022H23.2C26.761 61.022 28.8362 63.1968 28.8362 66.9487V66.9653C28.8362 70.8003 26.7859 73 23.2 73H18.7093ZM20.8509 71.1987H22.9178C25.3001 71.1987 26.6531 69.688 26.6531 66.9985V66.9819C26.6531 64.3506 25.2669 62.8232 22.9178 62.8232H20.8509V71.1987ZM31.732 62.4082C31.0513 62.4082 30.4951 61.8687 30.4951 61.188C30.4951 60.5156 31.0513 59.9678 31.732 59.9678C32.4043 59.9678 32.9605 60.5156 32.9605 61.188C32.9605 61.8687 32.4043 62.4082 31.732 62.4082ZM30.6944 73V63.9272H32.7613V73H30.6944ZM38.7864 73.1826C36.0554 73.1826 34.445 71.4146 34.445 68.4512V68.4346C34.445 65.5044 36.0471 63.7529 38.7781 63.7529C41.1106 63.7529 42.5051 65.0479 42.7375 66.9238V66.957H40.7868L40.7785 66.9321C40.5876 66.0522 39.9153 65.4214 38.7864 65.4214C37.3752 65.4214 36.5451 66.5337 36.5451 68.4346V68.4512C36.5451 70.377 37.3835 71.5059 38.7864 71.5059C39.8572 71.5059 40.5129 71.0161 40.7702 70.0615L40.7868 70.0283L42.7375 70.02L42.7209 70.0864C42.4221 71.9458 41.0857 73.1826 38.7864 73.1826ZM46.7704 73.1494C45.0439 73.1494 43.7905 72.0869 43.7905 70.4351V70.4185C43.7905 68.7998 45.0273 67.8535 47.2353 67.7207L49.5678 67.5796V66.7993C49.5678 65.8945 48.9785 65.3965 47.8661 65.3965C46.9199 65.3965 46.3056 65.7368 46.0981 66.3345L46.0898 66.3677H44.1391L44.1474 66.293C44.3466 64.7656 45.8076 63.7529 47.9658 63.7529C50.2983 63.7529 51.6098 64.8818 51.6098 66.7993V73H49.5678V71.7549H49.4267C48.9286 72.6348 47.9658 73.1494 46.7704 73.1494ZM45.8325 70.3354C45.8325 71.1074 46.4882 71.564 47.4013 71.564C48.6464 71.564 49.5678 70.7505 49.5678 69.6714V68.9409L47.5258 69.0737C46.372 69.1484 45.8325 69.5718 45.8325 70.3188V70.3354ZM57.112 73.1826C54.8043 73.1826 53.4098 72.1201 53.2355 70.5845V70.5679H55.2858L55.2941 70.5845C55.5099 71.2153 56.1159 71.6553 57.1452 71.6553C58.1745 71.6553 58.8883 71.1904 58.8883 70.5098V70.4932C58.8883 69.9619 58.4899 69.6133 57.4938 69.3892L56.0246 69.0571C54.298 68.6753 53.4762 67.8618 53.4762 66.5254V66.5171C53.4762 64.8818 54.9704 63.7529 57.112 63.7529C59.32 63.7529 60.6398 64.8486 60.7726 66.3179V66.3345H58.8302L58.8219 66.3096C58.6725 65.7368 58.0748 65.272 57.1037 65.272C56.1823 65.272 55.5182 65.7202 55.5182 66.4009V66.4092C55.5182 66.9404 55.9 67.2642 56.8795 67.4883L58.3488 67.812C60.1251 68.2104 60.9635 68.9658 60.9635 70.2856V70.3022C60.9635 72.0288 59.3449 73.1826 57.112 73.1826ZM66.7632 76.0132V63.9272H68.8301V65.3467H68.9713C69.4693 64.3589 70.4571 63.7778 71.7271 63.7778C74.0015 63.7778 75.4542 65.5874 75.4542 68.4595V68.4761C75.4542 71.3647 74.0264 73.1494 71.7271 73.1494C70.482 73.1494 69.4444 72.5352 68.9713 71.5557H68.8301V76.0132H66.7632ZM71.0797 71.4062C72.4908 71.4062 73.3458 70.2939 73.3458 68.4761V68.4595C73.3458 66.6333 72.4908 65.521 71.0797 65.521C69.6768 65.521 68.8052 66.6333 68.8052 68.4512V68.4678C68.8052 70.2856 69.6768 71.4062 71.0797 71.4062ZM79.6033 73.1494C77.8767 73.1494 76.6233 72.0869 76.6233 70.4351V70.4185C76.6233 68.7998 77.8601 67.8535 80.0681 67.7207L82.4007 67.5796V66.7993C82.4007 65.8945 81.8113 65.3965 80.699 65.3965C79.7527 65.3965 79.1384 65.7368 78.9309 66.3345L78.9226 66.3677H76.9719L76.9802 66.293C77.1795 64.7656 78.6404 63.7529 80.7986 63.7529C83.1311 63.7529 84.4426 64.8818 84.4426 66.7993V73H82.4007V71.7549H82.2595C81.7615 72.6348 80.7986 73.1494 79.6033 73.1494ZM78.6653 70.3354C78.6653 71.1074 79.3211 71.564 80.2341 71.564C81.4793 71.564 82.4007 70.7505 82.4007 69.6714V68.9409L80.3587 69.0737C79.2049 69.1484 78.6653 69.5718 78.6653 70.3188V70.3354ZM86.5166 73V63.9272H88.5835V65.3218H88.7246C89.0317 64.3506 89.8618 63.7778 91.0571 63.7778C91.3725 63.7778 91.6963 63.8193 91.8955 63.8774V65.7285C91.5635 65.6621 91.2231 65.6123 90.8662 65.6123C89.4883 65.6123 88.5835 66.4341 88.5835 67.729V73H86.5166ZM95.5383 73.1494C93.8117 73.1494 92.5583 72.0869 92.5583 70.4351V70.4185C92.5583 68.7998 93.7951 67.8535 96.0031 67.7207L98.3356 67.5796V66.7993C98.3356 65.8945 97.7463 65.3965 96.634 65.3965C95.6877 65.3965 95.0734 65.7368 94.8659 66.3345L94.8576 66.3677H92.9069L92.9152 66.293C93.1144 64.7656 94.5754 63.7529 96.7336 63.7529C99.0661 63.7529 100.378 64.8818 100.378 66.7993V73H98.3356V71.7549H98.1945C97.6965 72.6348 96.7336 73.1494 95.5383 73.1494ZM94.6003 70.3354C94.6003 71.1074 95.256 71.564 96.1691 71.564C97.4142 71.564 98.3356 70.7505 98.3356 69.6714V68.9409L96.2936 69.0737C95.1398 69.1484 94.6003 69.5718 94.6003 70.3188V70.3354ZM106.576 73V63.9272H108.643V65.3218H108.784C109.091 64.3506 109.921 63.7778 111.116 63.7778C111.432 63.7778 111.755 63.8193 111.955 63.8774V65.7285C111.623 65.6621 111.282 65.6123 110.925 65.6123C109.547 65.6123 108.643 66.4341 108.643 67.729V73H106.576ZM116.892 73.1826C114.195 73.1826 112.559 71.373 112.559 68.4844V68.4761C112.559 65.6206 114.211 63.7529 116.793 63.7529C119.374 63.7529 120.968 65.5625 120.968 68.3018V68.9824H114.626C114.651 70.6094 115.531 71.5557 116.934 71.5557C118.055 71.5557 118.694 70.9912 118.893 70.5762L118.918 70.5181H120.885L120.86 70.5928C120.57 71.7632 119.358 73.1826 116.892 73.1826ZM116.818 65.3716C115.664 65.3716 114.801 66.1519 114.643 67.5962H118.951C118.81 66.1104 117.971 65.3716 116.818 65.3716ZM126.52 73.1826C123.789 73.1826 122.179 71.4146 122.179 68.4512V68.4346C122.179 65.5044 123.781 63.7529 126.512 63.7529C128.844 63.7529 130.239 65.0479 130.471 66.9238V66.957H128.521L128.512 66.9321C128.321 66.0522 127.649 65.4214 126.52 65.4214C125.109 65.4214 124.279 66.5337 124.279 68.4346V68.4512C124.279 70.377 125.117 71.5059 126.52 71.5059C127.591 71.5059 128.247 71.0161 128.504 70.0615L128.521 70.0283L130.471 70.02L130.455 70.0864C130.156 71.9458 128.819 73.1826 126.52 73.1826ZM133.093 62.4082C132.412 62.4082 131.856 61.8687 131.856 61.188C131.856 60.5156 132.412 59.9678 133.093 59.9678C133.765 59.9678 134.322 60.5156 134.322 61.188C134.322 61.8687 133.765 62.4082 133.093 62.4082ZM132.055 73V63.9272H134.122V73H132.055ZM140.147 73.1826C137.416 73.1826 135.806 71.4146 135.806 68.4512V68.4346C135.806 65.5044 137.408 63.7529 140.139 63.7529C142.472 63.7529 143.866 65.0479 144.099 66.9238V66.957H142.148L142.14 66.9321C141.949 66.0522 141.276 65.4214 140.147 65.4214C138.736 65.4214 137.906 66.5337 137.906 68.4346V68.4512C137.906 70.377 138.745 71.5059 140.147 71.5059C141.218 71.5059 141.874 71.0161 142.131 70.0615L142.148 70.0283L144.099 70.02L144.082 70.0864C143.783 71.9458 142.447 73.1826 140.147 73.1826ZM145.741 73V60.416H147.808V73H145.741ZM152.488 73.1494C150.762 73.1494 149.508 72.0869 149.508 70.4351V70.4185C149.508 68.7998 150.745 67.8535 152.953 67.7207L155.285 67.5796V66.7993C155.285 65.8945 154.696 65.3965 153.584 65.3965C152.638 65.3965 152.023 65.7368 151.816 66.3345L151.807 66.3677H149.857L149.865 66.293C150.064 64.7656 151.525 63.7529 153.683 63.7529C156.016 63.7529 157.327 64.8818 157.327 66.7993V73H155.285V71.7549H155.144C154.646 72.6348 153.683 73.1494 152.488 73.1494ZM151.55 70.3354C151.55 71.1074 152.206 71.564 153.119 71.564C154.364 71.564 155.285 70.7505 155.285 69.6714V68.9409L153.243 69.0737C152.09 69.1484 151.55 69.5718 151.55 70.3188V70.3354ZM163.303 76.1875C160.912 76.1875 159.476 75.1665 159.269 73.6392L159.277 73.6143H161.344L161.352 73.6392C161.493 74.2202 162.182 74.627 163.336 74.627C164.747 74.627 165.569 73.9712 165.569 72.8091V71.0742H165.428C164.905 72.0454 163.917 72.5767 162.664 72.5767C160.364 72.5767 158.937 70.8003 158.937 68.2271V68.2104C158.937 65.5874 160.364 63.7778 162.705 63.7778C163.959 63.7778 164.938 64.3921 165.453 65.4214H165.561V63.9272H167.628V72.7759C167.628 74.8677 165.951 76.1875 163.303 76.1875ZM163.303 70.9331C164.739 70.9331 165.602 69.8291 165.602 68.2271V68.2104C165.602 66.6084 164.731 65.4961 163.303 65.4961C161.867 65.4961 161.053 66.6084 161.053 68.2104V68.2271C161.053 69.8291 161.867 70.9331 163.303 70.9331ZM173.636 73.1826C170.938 73.1826 169.303 71.373 169.303 68.4844V68.4761C169.303 65.6206 170.955 63.7529 173.536 63.7529C176.118 63.7529 177.712 65.5625 177.712 68.3018V68.9824H171.37C171.395 70.6094 172.275 71.5557 173.678 71.5557C174.798 71.5557 175.437 70.9912 175.636 70.5762L175.661 70.5181H177.629L177.604 70.5928C177.313 71.7632 176.101 73.1826 173.636 73.1826ZM173.561 65.3716C172.407 65.3716 171.544 66.1519 171.386 67.5962H175.695C175.553 66.1104 174.715 65.3716 173.561 65.3716ZM179.371 73V63.9272H181.437V65.3384H181.579C181.969 64.3257 182.882 63.7529 184.069 63.7529C185.297 63.7529 186.194 64.3838 186.584 65.3882H186.725C187.165 64.4004 188.211 63.7529 189.473 63.7529C191.299 63.7529 192.395 64.8735 192.395 66.7578V73H190.328V67.2642C190.328 66.0854 189.788 65.4878 188.684 65.4878C187.605 65.4878 186.908 66.293 186.908 67.3306V73H184.841V67.1147C184.841 66.1104 184.218 65.4878 183.206 65.4878C182.185 65.4878 181.437 66.3511 181.437 67.48V73H179.371ZM195.971 65.2388C195.216 65.2388 194.651 64.6577 194.651 63.9272C194.651 63.1885 195.216 62.6157 195.971 62.6157C196.735 62.6157 197.291 63.1885 197.291 63.9272C197.291 64.6577 196.735 65.2388 195.971 65.2388ZM195.971 71.3979C195.216 71.3979 194.651 70.8252 194.651 70.0864C194.651 69.3477 195.216 68.7749 195.971 68.7749C196.735 68.7749 197.291 69.3477 197.291 70.0864C197.291 70.8252 196.735 71.3979 195.971 71.3979Z" fill="#106C49"/>
<path d="M183.964 32V20.022H186.422L190.024 29.2358H190.165L193.759 20.022H196.216V32H194.291V23.4834H194.141L190.821 32H189.36L186.04 23.4834H185.899V32H183.964ZM201.021 32.1494C199.295 32.1494 198.041 31.0869 198.041 29.4351V29.4185C198.041 27.7998 199.278 26.8535 201.486 26.7207L203.819 26.5796V25.7993C203.819 24.8945 203.229 24.3965 202.117 24.3965C201.171 24.3965 200.556 24.7368 200.349 25.3345L200.341 25.3677H198.39L198.398 25.293C198.597 23.7656 200.058 22.7529 202.217 22.7529C204.549 22.7529 205.861 23.8818 205.861 25.7993V32H203.819V30.7549H203.678C203.18 31.6348 202.217 32.1494 201.021 32.1494ZM200.083 29.3354C200.083 30.1074 200.739 30.564 201.652 30.564C202.897 30.564 203.819 29.7505 203.819 28.6714V27.9409L201.777 28.0737C200.623 28.1484 200.083 28.5718 200.083 29.3188V29.3354ZM211.504 32.0415C209.42 32.0415 208.565 31.3442 208.565 29.5928V24.5293H207.154V22.9272H208.565V20.7026H210.666V22.9272H212.583V24.5293H210.666V29.103C210.666 30.0078 211.023 30.3896 211.886 30.3896C212.176 30.3896 212.334 30.3813 212.583 30.3564V31.9502C212.284 32.0083 211.902 32.0415 211.504 32.0415ZM218.035 32.1826C215.338 32.1826 213.702 30.373 213.702 27.4844V27.4761C213.702 24.6206 215.354 22.7529 217.936 22.7529C220.517 22.7529 222.111 24.5625 222.111 27.3018V27.9824H215.769C215.794 29.6094 216.674 30.5557 218.077 30.5557C219.198 30.5557 219.837 29.9912 220.036 29.5762L220.061 29.5181H222.028L222.003 29.5928C221.713 30.7632 220.501 32.1826 218.035 32.1826ZM217.961 24.3716C216.807 24.3716 215.944 25.1519 215.786 26.5962H220.094C219.953 25.1104 219.115 24.3716 217.961 24.3716ZM223.77 32V22.9272H225.837V24.3218H225.978C226.285 23.3506 227.115 22.7778 228.311 22.7778C228.626 22.7778 228.95 22.8193 229.149 22.8774V24.7285C228.817 24.6621 228.477 24.6123 228.12 24.6123C226.742 24.6123 225.837 25.4341 225.837 26.729V32H223.77ZM231.497 21.4082C230.816 21.4082 230.26 20.8687 230.26 20.188C230.26 19.5156 230.816 18.9678 231.497 18.9678C232.169 18.9678 232.725 19.5156 232.725 20.188C232.725 20.8687 232.169 21.4082 231.497 21.4082ZM230.459 32V22.9272H232.526V32H230.459ZM237.132 32.1494C235.405 32.1494 234.152 31.0869 234.152 29.4351V29.4185C234.152 27.7998 235.389 26.8535 237.597 26.7207L239.929 26.5796V25.7993C239.929 24.8945 239.34 24.3965 238.227 24.3965C237.281 24.3965 236.667 24.7368 236.459 25.3345L236.451 25.3677H234.5L234.509 25.293C234.708 23.7656 236.169 22.7529 238.327 22.7529C240.66 22.7529 241.971 23.8818 241.971 25.7993V32H239.929V30.7549H239.788C239.29 31.6348 238.327 32.1494 237.132 32.1494ZM236.194 29.3354C236.194 30.1074 236.849 30.564 237.763 30.564C239.008 30.564 239.929 29.7505 239.929 28.6714V27.9409L237.887 28.0737C236.733 28.1484 236.194 28.5718 236.194 29.3188V29.3354ZM244.128 32V19.416H246.195V32H244.128ZM252.742 32V20.022H257.581C260.154 20.022 261.698 21.458 261.698 23.7407V23.7573C261.698 25.3428 260.86 26.6543 259.44 27.1689L262.055 32H259.606L257.257 27.4927H254.883V32H252.742ZM254.883 25.8491H257.357C258.71 25.8491 259.499 25.0938 259.499 23.8071V23.7905C259.499 22.5371 258.677 21.7568 257.315 21.7568H254.883V25.8491ZM267.275 32.1826C264.577 32.1826 262.942 30.373 262.942 27.4844V27.4761C262.942 24.6206 264.594 22.7529 267.175 22.7529C269.757 22.7529 271.351 24.5625 271.351 27.3018V27.9824H265.009C265.034 29.6094 265.914 30.5557 267.317 30.5557C268.437 30.5557 269.076 29.9912 269.276 29.5762L269.3 29.5181H271.268L271.243 29.5928C270.952 30.7632 269.74 32.1826 267.275 32.1826ZM267.2 24.3716C266.047 24.3716 265.183 25.1519 265.026 26.5962H269.334C269.193 25.1104 268.354 24.3716 267.2 24.3716ZM276.903 32.1826C274.172 32.1826 272.561 30.4146 272.561 27.4512V27.4346C272.561 24.5044 274.163 22.7529 276.894 22.7529C279.227 22.7529 280.621 24.0479 280.854 25.9238V25.957H278.903L278.895 25.9321C278.704 25.0522 278.032 24.4214 276.903 24.4214C275.492 24.4214 274.662 25.5337 274.662 27.4346V27.4512C274.662 29.377 275.5 30.5059 276.903 30.5059C277.974 30.5059 278.629 30.0161 278.887 29.0615L278.903 29.0283L280.854 29.02L280.837 29.0864C280.538 30.9458 279.202 32.1826 276.903 32.1826ZM283.476 21.4082C282.795 21.4082 282.239 20.8687 282.239 20.188C282.239 19.5156 282.795 18.9678 283.476 18.9678C284.148 18.9678 284.704 19.5156 284.704 20.188C284.704 20.8687 284.148 21.4082 283.476 21.4082ZM282.438 32V22.9272H284.505V32H282.438ZM290.53 32.1826C287.799 32.1826 286.189 30.4146 286.189 27.4512V27.4346C286.189 24.5044 287.791 22.7529 290.522 22.7529C292.854 22.7529 294.249 24.0479 294.481 25.9238V25.957H292.531L292.522 25.9321C292.331 25.0522 291.659 24.4214 290.53 24.4214C289.119 24.4214 288.289 25.5337 288.289 27.4346V27.4512C288.289 29.377 289.127 30.5059 290.53 30.5059C291.601 30.5059 292.257 30.0161 292.514 29.0615L292.531 29.0283L294.481 29.02L294.465 29.0864C294.166 30.9458 292.829 32.1826 290.53 32.1826ZM296.124 32V19.416H298.19V32H296.124ZM304.714 21.6987H303.17L304.622 18.8101H306.698L304.714 21.6987ZM302.871 32.1494C301.144 32.1494 299.891 31.0869 299.891 29.4351V29.4185C299.891 27.7998 301.128 26.8535 303.336 26.7207L305.668 26.5796V25.7993C305.668 24.8945 305.079 24.3965 303.967 24.3965C303.02 24.3965 302.406 24.7368 302.198 25.3345L302.19 25.3677H300.239L300.248 25.293C300.447 23.7656 301.908 22.7529 304.066 22.7529C306.399 22.7529 307.71 23.8818 307.71 25.7993V32H305.668V30.7549H305.527C305.029 31.6348 304.066 32.1494 302.871 32.1494ZM301.933 29.3354C301.933 30.1074 302.589 30.564 303.502 30.564C304.747 30.564 305.668 29.7505 305.668 28.6714V27.9409L303.626 28.0737C302.472 28.1484 301.933 28.5718 301.933 29.3188V29.3354ZM311.942 32L308.713 22.9272H310.921L313.021 29.9829H313.163L315.246 22.9272H317.421L314.208 32H311.942ZM322.276 32.1826C319.578 32.1826 317.943 30.373 317.943 27.4844V27.4761C317.943 24.6206 319.594 22.7529 322.176 22.7529C324.757 22.7529 326.351 24.5625 326.351 27.3018V27.9824H320.009C320.034 29.6094 320.914 30.5557 322.317 30.5557C323.438 30.5557 324.077 29.9912 324.276 29.5762L324.301 29.5181H326.268L326.243 29.5928C325.953 30.7632 324.741 32.1826 322.276 32.1826ZM322.201 24.3716C321.047 24.3716 320.184 25.1519 320.026 26.5962H324.334C324.193 25.1104 323.355 24.3716 322.201 24.3716ZM328.093 32V19.416H330.16V32H328.093Z" fill="#FCF8F4"/>
<path d="M32.4517 95.9985V96.0151C32.4517 96.9614 31.7046 97.7085 30.7583 97.7085H30.7417C29.7954 97.7085 29.0483 96.9614 29.0483 96.0151V95.9985C29.0483 95.0522 29.7954 94.3052 30.7417 94.3052H30.7583C31.7046 94.3052 32.4517 95.0522 32.4517 95.9985ZM45.0273 102V90.022H46.5215V100.655H52.2988V102H45.0273ZM56.5559 102.158C54.8542 102.158 53.5676 101.128 53.5676 99.5015V99.4849C53.5676 97.8911 54.7463 96.9697 56.8298 96.8452L59.3947 96.6875V95.874C59.3947 94.77 58.7224 94.1724 57.3859 94.1724C56.3151 94.1724 55.6096 94.5708 55.3772 95.2681L55.3689 95.293H53.9245L53.9328 95.2432C54.1652 93.8403 55.5266 92.894 57.4357 92.894C59.6189 92.894 60.8391 94.0146 60.8391 95.874V102H59.3947V100.68H59.2619C58.6975 101.635 57.7595 102.158 56.5559 102.158ZM55.0451 99.4683C55.0451 100.373 55.8171 100.904 56.8547 100.904C58.3239 100.904 59.3947 99.9414 59.3947 98.6631V97.8496L57.0041 97.999C55.6428 98.082 55.0451 98.5635 55.0451 99.4517V99.4683ZM65.2704 102L61.9584 93.0518H63.4858L65.9345 100.423H66.0673L68.516 93.0518H70.0434L66.7314 102H65.2704ZM74.8649 102.158C72.3082 102.158 70.7643 100.365 70.7643 97.5591V97.5508C70.7643 94.7866 72.3414 92.894 74.7736 92.894C77.2057 92.894 78.6832 94.7036 78.6832 97.3765V97.9409H72.2418C72.2833 99.792 73.3043 100.871 74.8981 100.871C76.11 100.871 76.8571 100.298 77.0978 99.7588L77.131 99.6841H78.5753L78.5587 99.7505C78.2516 100.962 76.9733 102.158 74.8649 102.158ZM74.7653 94.1807C73.4371 94.1807 72.4244 95.0854 72.2667 96.7871H77.214C77.0646 95.019 76.0851 94.1807 74.7653 94.1807ZM89.3389 102.158C88.0938 102.158 87.0977 101.568 86.5498 100.572H86.417V102H84.9727V89.499H86.417V94.4629H86.5498C87.0396 93.5083 88.1104 92.894 89.3389 92.894C91.6133 92.894 93.0909 94.7119 93.0909 97.5176V97.5342C93.0909 100.323 91.605 102.158 89.3389 102.158ZM89.0069 100.879C90.6421 100.879 91.6133 99.6177 91.6133 97.5342V97.5176C91.6133 95.4341 90.6421 94.1724 89.0069 94.1724C87.3799 94.1724 86.3838 95.4507 86.3838 97.5176V97.5342C86.3838 99.6011 87.3799 100.879 89.0069 100.879ZM98.5764 102.158C96.0198 102.158 94.4758 100.365 94.4758 97.5591V97.5508C94.4758 94.7866 96.053 92.894 98.4851 92.894C100.917 92.894 102.395 94.7036 102.395 97.3765V97.9409H95.9534C95.9949 99.792 97.0159 100.871 98.6096 100.871C99.8215 100.871 100.569 100.298 100.809 99.7588L100.843 99.6841H102.287L102.27 99.7505C101.963 100.962 100.685 102.158 98.5764 102.158ZM98.4768 94.1807C97.1487 94.1807 96.136 95.0854 95.9783 96.7871H100.926C100.776 95.019 99.7966 94.1807 98.4768 94.1807ZM104.228 102V93.0518H105.672V94.4131H105.805C106.204 93.4502 107.05 92.894 108.221 92.894C109.433 92.894 110.279 93.5332 110.694 94.4629H110.827C111.309 93.5166 112.33 92.894 113.566 92.894C115.393 92.894 116.414 93.9399 116.414 95.8159V102H114.969V96.1479C114.969 94.8281 114.363 94.1724 113.102 94.1724C111.856 94.1724 111.035 95.1104 111.035 96.2476V102H109.59V95.9238C109.59 94.8613 108.86 94.1724 107.731 94.1724C106.561 94.1724 105.672 95.1934 105.672 96.4551V102H104.228ZM125.442 102.158C123.741 102.158 122.454 101.128 122.454 99.5015V99.4849C122.454 97.8911 123.633 96.9697 125.716 96.8452L128.281 96.6875V95.874C128.281 94.77 127.609 94.1724 126.272 94.1724C125.202 94.1724 124.496 94.5708 124.264 95.2681L124.255 95.293H122.811L122.819 95.2432C123.052 93.8403 124.413 92.894 126.322 92.894C128.505 92.894 129.725 94.0146 129.725 95.874V102H128.281V100.68H128.148C127.584 101.635 126.646 102.158 125.442 102.158ZM123.932 99.4683C123.932 100.373 124.703 100.904 125.741 100.904C127.21 100.904 128.281 99.9414 128.281 98.6631V97.8496L125.891 97.999C124.529 98.082 123.932 98.5635 123.932 99.4517V99.4683ZM140.016 105.154C137.858 105.154 136.48 104.183 136.256 102.714L136.272 102.706H137.766L137.775 102.714C137.932 103.395 138.729 103.876 140.016 103.876C141.618 103.876 142.573 103.121 142.573 101.801V99.9912H142.44C141.875 100.979 140.863 101.535 139.634 101.535C137.318 101.535 135.882 99.7422 135.882 97.2354V97.2188C135.882 94.7119 137.326 92.894 139.667 92.894C140.929 92.894 141.908 93.5166 142.456 94.5293H142.556V93.0518H144V101.875C144 103.876 142.456 105.154 140.016 105.154ZM139.95 100.257C141.61 100.257 142.606 99.0117 142.606 97.2354V97.2188C142.606 95.4424 141.601 94.1724 139.95 94.1724C138.289 94.1724 137.36 95.4424 137.36 97.2188V97.2354C137.36 99.0117 138.289 100.257 139.95 100.257ZM148.739 102.158C147.037 102.158 145.75 101.128 145.75 99.5015V99.4849C145.75 97.8911 146.929 96.9697 149.013 96.8452L151.578 96.6875V95.874C151.578 94.77 150.905 94.1724 149.569 94.1724C148.498 94.1724 147.792 94.5708 147.56 95.2681L147.552 95.293H146.107L146.116 95.2432C146.348 93.8403 147.709 92.894 149.619 92.894C151.802 92.894 153.022 94.0146 153.022 95.874V102H151.578V100.68H151.445C150.88 101.635 149.942 102.158 148.739 102.158ZM147.228 99.4683C147.228 100.373 148 100.904 149.038 100.904C150.507 100.904 151.578 99.9414 151.578 98.6631V97.8496L149.187 97.999C147.826 98.082 147.228 98.5635 147.228 99.4517V99.4683ZM155.254 102V93.0518H156.698V94.3799H156.831C157.171 93.4419 158.009 92.894 159.221 92.894C159.495 92.894 159.802 92.9272 159.944 92.9521V94.355C159.645 94.3052 159.371 94.272 159.055 94.272C157.677 94.272 156.698 95.1436 156.698 96.4551V102H155.254ZM161.486 102V93.0518H162.931V94.3799H163.063C163.404 93.4419 164.242 92.894 165.454 92.894C165.728 92.894 166.035 92.9272 166.176 92.9521V94.355C165.877 94.3052 165.603 94.272 165.288 94.272C163.91 94.272 162.931 95.1436 162.931 96.4551V102H161.486ZM170.01 102.158C168.308 102.158 167.022 101.128 167.022 99.5015V99.4849C167.022 97.8911 168.2 96.9697 170.284 96.8452L172.849 96.6875V95.874C172.849 94.77 172.176 94.1724 170.84 94.1724C169.769 94.1724 169.064 94.5708 168.831 95.2681L168.823 95.293H167.379L167.387 95.2432C167.619 93.8403 168.981 92.894 170.89 92.894C173.073 92.894 174.293 94.0146 174.293 95.874V102H172.849V100.68H172.716C172.151 101.635 171.214 102.158 170.01 102.158ZM168.499 99.4683C168.499 100.373 169.271 100.904 170.309 100.904C171.778 100.904 172.849 99.9414 172.849 98.6631V97.8496L170.458 97.999C169.097 98.082 168.499 98.5635 168.499 99.4517V99.4683ZM177.122 102V94.2471H175.637V93.0518H177.122V92.0557C177.122 90.271 178.019 89.416 179.721 89.416C180.069 89.416 180.385 89.4409 180.683 89.499V90.6528C180.509 90.6196 180.268 90.6113 180.011 90.6113C178.982 90.6113 178.567 91.1177 178.567 92.0972V93.0518H180.6V94.2471H178.567V102H177.122ZM184.484 102.158C182.782 102.158 181.496 101.128 181.496 99.5015V99.4849C181.496 97.8911 182.674 96.9697 184.758 96.8452L187.323 96.6875V95.874C187.323 94.77 186.65 94.1724 185.314 94.1724C184.243 94.1724 183.538 94.5708 183.305 95.2681L183.297 95.293H181.853L181.861 95.2432C182.093 93.8403 183.455 92.894 185.364 92.894C187.547 92.894 188.767 94.0146 188.767 95.874V102H187.323V100.68H187.19C186.626 101.635 185.688 102.158 184.484 102.158ZM182.973 99.4683C182.973 100.373 183.745 100.904 184.783 100.904C186.252 100.904 187.323 99.9414 187.323 98.6631V97.8496L184.932 97.999C183.571 98.082 182.973 98.5635 182.973 99.4517V99.4683ZM192.177 95.6582C191.588 95.6582 191.098 95.1685 191.098 94.5791C191.098 93.9814 191.588 93.5 192.177 93.5C192.775 93.5 193.257 93.9814 193.257 94.5791C193.257 95.1685 192.775 95.6582 192.177 95.6582ZM190.634 105.046L191.356 100.323H193.008L191.704 105.046H190.634ZM32.4517 117.999V118.015C32.4517 118.961 31.7046 119.708 30.7583 119.708H30.7417C29.7954 119.708 29.0483 118.961 29.0483 118.015V117.999C29.0483 117.052 29.7954 116.305 30.7417 116.305H30.7583C31.7046 116.305 32.4517 117.052 32.4517 117.999ZM45.0273 124V112.022H49.6011C51.9087 112.022 53.4194 113.433 53.4194 115.583V115.6C53.4194 117.26 52.5146 118.555 51.0122 119.028L53.7847 124H52.0332L49.4683 119.26H46.5215V124H45.0273ZM46.5215 117.932H49.4683C51.0039 117.932 51.8755 117.11 51.8755 115.649V115.633C51.8755 114.205 50.9458 113.35 49.4019 113.35H46.5215V117.932ZM58.9465 124.158C56.3899 124.158 54.8459 122.365 54.8459 119.559V119.551C54.8459 116.787 56.4231 114.894 58.8552 114.894C61.2873 114.894 62.7649 116.704 62.7649 119.376V119.941H56.3234C56.3649 121.792 57.3859 122.871 58.9797 122.871C60.1916 122.871 60.9387 122.298 61.1794 121.759L61.2126 121.684H62.6569L62.6403 121.75C62.3332 122.962 61.0549 124.158 58.9465 124.158ZM58.8469 116.181C57.5188 116.181 56.5061 117.085 56.3483 118.787H61.2956C61.1462 117.019 60.1667 116.181 58.8469 116.181ZM67.7773 124.066C65.9345 124.066 65.1625 123.386 65.1625 121.676V116.247H63.7514V115.052H65.1625V112.736H66.6567V115.052H68.6156V116.247H66.6567V121.311C66.6567 122.365 67.0219 122.788 67.9516 122.788C68.2089 122.788 68.35 122.78 68.6156 122.755V123.983C68.3334 124.033 68.0595 124.066 67.7773 124.066ZM71.1295 113.325C70.5817 113.325 70.1334 112.877 70.1334 112.329C70.1334 111.781 70.5817 111.333 71.1295 111.333C71.6774 111.333 72.1256 111.781 72.1256 112.329C72.1256 112.877 71.6774 113.325 71.1295 113.325ZM70.399 124V115.052H71.8434V124H70.399ZM74.158 124V115.052H75.6024V116.38H75.7352C76.0755 115.442 76.9139 114.894 78.1258 114.894C78.3997 114.894 78.7069 114.927 78.848 114.952V116.355C78.5492 116.305 78.2752 116.272 77.9598 116.272C76.5819 116.272 75.6024 117.144 75.6024 118.455V124H74.158ZM83.628 124.158C81.0713 124.158 79.5274 122.365 79.5274 119.559V119.551C79.5274 116.787 81.1045 114.894 83.5367 114.894C85.9688 114.894 87.4463 116.704 87.4463 119.376V119.941H81.0049C81.0464 121.792 82.0674 122.871 83.6612 122.871C84.8731 122.871 85.6202 122.298 85.8609 121.759L85.8941 121.684H87.3384L87.3218 121.75C87.0147 122.962 85.7364 124.158 83.628 124.158ZM83.5284 116.181C82.2002 116.181 81.1875 117.085 81.0298 118.787H85.9771C85.8277 117.019 84.8482 116.181 83.5284 116.181ZM96.1098 124.158C94.4082 124.158 93.1215 123.128 93.1215 121.501V121.485C93.1215 119.891 94.3002 118.97 96.3837 118.845L98.9487 118.688V117.874C98.9487 116.77 98.2763 116.172 96.9399 116.172C95.8691 116.172 95.1635 116.571 94.9311 117.268L94.9228 117.293H93.4785L93.4868 117.243C93.7192 115.84 95.0805 114.894 96.9897 114.894C99.1728 114.894 100.393 116.015 100.393 117.874V124H98.9487V122.68H98.8159C98.2514 123.635 97.3134 124.158 96.1098 124.158ZM94.5991 121.468C94.5991 122.373 95.371 122.904 96.4086 122.904C97.8779 122.904 98.9487 121.941 98.9487 120.663V119.85L96.5581 119.999C95.1967 120.082 94.5991 120.563 94.5991 121.452V121.468ZM105.696 124.158C103.704 124.158 102.334 123.195 102.168 121.717H103.646C103.886 122.464 104.6 122.954 105.746 122.954C106.949 122.954 107.804 122.381 107.804 121.568V121.551C107.804 120.945 107.348 120.522 106.244 120.256L104.858 119.924C103.181 119.526 102.425 118.795 102.425 117.509V117.5C102.425 116.015 103.853 114.894 105.754 114.894C107.63 114.894 108.933 115.832 109.132 117.293H107.713C107.522 116.587 106.825 116.098 105.746 116.098C104.683 116.098 103.903 116.646 103.903 117.434V117.451C103.903 118.057 104.351 118.438 105.405 118.696L106.783 119.028C108.468 119.435 109.282 120.165 109.282 121.443V121.46C109.282 123.054 107.73 124.158 105.696 124.158ZM118.668 124.066C116.825 124.066 116.053 123.386 116.053 121.676V116.247H114.642V115.052H116.053V112.736H117.547V115.052H119.506V116.247H117.547V121.311C117.547 122.365 117.912 122.788 118.842 122.788C119.099 122.788 119.24 122.78 119.506 122.755V123.983C119.224 124.033 118.95 124.066 118.668 124.066ZM123.713 124.158C122.012 124.158 120.725 123.128 120.725 121.501V121.485C120.725 119.891 121.904 118.97 123.987 118.845L126.552 118.688V117.874C126.552 116.77 125.88 116.172 124.543 116.172C123.472 116.172 122.767 116.571 122.534 117.268L122.526 117.293H121.082L121.09 117.243C121.323 115.84 122.684 114.894 124.593 114.894C126.776 114.894 127.996 116.015 127.996 117.874V124H126.552V122.68H126.419C125.855 123.635 124.917 124.158 123.713 124.158ZM122.202 121.468C122.202 122.373 122.974 122.904 124.012 122.904C125.481 122.904 126.552 121.941 126.552 120.663V119.85L124.161 119.999C122.8 120.082 122.202 120.563 122.202 121.452V121.468ZM130.228 124V115.052H131.672V116.413H131.805C132.204 115.45 133.05 114.894 134.221 114.894C135.433 114.894 136.279 115.533 136.694 116.463H136.827C137.309 115.517 138.33 114.894 139.566 114.894C141.393 114.894 142.414 115.94 142.414 117.816V124H140.969V118.148C140.969 116.828 140.363 116.172 139.102 116.172C137.856 116.172 137.035 117.11 137.035 118.248V124H135.59V117.924C135.59 116.861 134.86 116.172 133.731 116.172C132.561 116.172 131.672 117.193 131.672 118.455V124H130.228ZM144.612 126.988V115.052H146.056V116.479H146.189C146.737 115.483 147.733 114.894 148.978 114.894C151.244 114.894 152.73 116.729 152.73 119.518V119.534C152.73 122.34 151.253 124.158 148.978 124.158C147.75 124.158 146.679 123.543 146.189 122.589H146.056V126.988H144.612ZM148.646 122.879C150.281 122.879 151.253 121.618 151.253 119.534V119.518C151.253 117.434 150.281 116.172 148.646 116.172C147.019 116.172 146.023 117.451 146.023 119.518V119.534C146.023 121.601 147.019 122.879 148.646 122.879ZM157.037 124.158C155.335 124.158 154.049 123.128 154.049 121.501V121.485C154.049 119.891 155.227 118.97 157.311 118.845L159.876 118.688V117.874C159.876 116.77 159.204 116.172 157.867 116.172C156.796 116.172 156.091 116.571 155.858 117.268L155.85 117.293H154.406L154.414 117.243C154.646 115.84 156.008 114.894 157.917 114.894C160.1 114.894 161.32 116.015 161.32 117.874V124H159.876V122.68H159.743C159.179 123.635 158.241 124.158 157.037 124.158ZM155.526 121.468C155.526 122.373 156.298 122.904 157.336 122.904C158.805 122.904 159.876 121.941 159.876 120.663V119.85L157.485 119.999C156.124 120.082 155.526 120.563 155.526 121.452V121.468ZM166.623 124.158C164.631 124.158 163.261 123.195 163.095 121.717H164.573C164.814 122.464 165.527 122.954 166.673 122.954C167.877 122.954 168.732 122.381 168.732 121.568V121.551C168.732 120.945 168.275 120.522 167.171 120.256L165.785 119.924C164.108 119.526 163.353 118.795 163.353 117.509V117.5C163.353 116.015 164.78 114.894 166.681 114.894C168.557 114.894 169.86 115.832 170.06 117.293H168.64C168.449 116.587 167.752 116.098 166.673 116.098C165.61 116.098 164.83 116.646 164.83 117.434V117.451C164.83 118.057 165.278 118.438 166.333 118.696L167.711 119.028C169.396 119.435 170.209 120.165 170.209 121.443V121.46C170.209 123.054 168.657 124.158 166.623 124.158ZM180.068 124.158C177.511 124.158 175.967 122.365 175.967 119.559V119.551C175.967 116.787 177.544 114.894 179.977 114.894C182.409 114.894 183.886 116.704 183.886 119.376V119.941H177.445C177.486 121.792 178.507 122.871 180.101 122.871C181.313 122.871 182.06 122.298 182.301 121.759L182.334 121.684H183.778L183.762 121.75C183.455 122.962 182.176 124.158 180.068 124.158ZM179.968 116.181C178.64 116.181 177.627 117.085 177.47 118.787H182.417C182.268 117.019 181.288 116.181 179.968 116.181ZM190.093 124V115.052H191.537V116.38H191.67C192.01 115.442 192.849 114.894 194.061 114.894C194.334 114.894 194.642 114.927 194.783 114.952V116.355C194.484 116.305 194.21 116.272 193.894 116.272C192.517 116.272 191.537 117.144 191.537 118.455V124H190.093ZM199.588 124.158C197.039 124.158 195.462 122.398 195.462 119.534V119.518C195.462 116.646 197.039 114.894 199.588 114.894C202.136 114.894 203.713 116.646 203.713 119.518V119.534C203.713 122.398 202.136 124.158 199.588 124.158ZM199.588 122.879C201.281 122.879 202.236 121.643 202.236 119.534V119.518C202.236 117.401 201.281 116.172 199.588 116.172C197.894 116.172 196.94 117.401 196.94 119.518V119.534C196.94 121.643 197.894 122.879 199.588 122.879ZM205.629 124V111.499H207.074V124H205.629ZM209.521 124V111.499H210.965V116.396H211.098C211.546 115.45 212.385 114.894 213.705 114.894C215.713 114.894 216.834 116.081 216.834 118.206V124H215.39V118.555C215.39 116.944 214.726 116.172 213.298 116.172C211.87 116.172 210.965 117.135 210.965 118.704V124H209.521ZM221.498 124.158C219.796 124.158 218.51 123.128 218.51 121.501V121.485C218.51 119.891 219.688 118.97 221.772 118.845L224.337 118.688V117.874C224.337 116.77 223.664 116.172 222.328 116.172C221.257 116.172 220.552 116.571 220.319 117.268L220.311 117.293H218.866L218.875 117.243C219.107 115.84 220.469 114.894 222.378 114.894C224.561 114.894 225.781 116.015 225.781 117.874V124H224.337V122.68H224.204C223.639 123.635 222.701 124.158 221.498 124.158ZM219.987 121.468C219.987 122.373 220.759 122.904 221.797 122.904C223.266 122.904 224.337 121.941 224.337 120.663V119.85L221.946 119.999C220.585 120.082 219.987 120.563 219.987 121.452V121.468ZM231.084 124.158C229.092 124.158 227.722 123.195 227.556 121.717H229.034C229.274 122.464 229.988 122.954 231.134 122.954C232.337 122.954 233.192 122.381 233.192 121.568V121.551C233.192 120.945 232.736 120.522 231.632 120.256L230.246 119.924C228.569 119.526 227.813 118.795 227.813 117.509V117.5C227.813 116.015 229.241 114.894 231.142 114.894C233.018 114.894 234.321 115.832 234.521 117.293H233.101C232.91 116.587 232.213 116.098 231.134 116.098C230.071 116.098 229.291 116.646 229.291 117.434V117.451C229.291 118.057 229.739 118.438 230.793 118.696L232.171 119.028C233.856 119.435 234.67 120.165 234.67 121.443V121.46C234.67 123.054 233.118 124.158 231.084 124.158ZM237.682 117.658C237.092 117.658 236.603 117.168 236.603 116.579C236.603 115.981 237.092 115.5 237.682 115.5C238.279 115.5 238.761 115.981 238.761 116.579C238.761 117.168 238.279 117.658 237.682 117.658ZM236.138 127.046L236.86 122.323H238.512L237.209 127.046H236.138ZM32.4517 139.999V140.015C32.4517 140.961 31.7046 141.708 30.7583 141.708H30.7417C29.7954 141.708 29.0483 140.961 29.0483 140.015V139.999C29.0483 139.052 29.7954 138.305 30.7417 138.305H30.7583C31.7046 138.305 32.4517 139.052 32.4517 139.999ZM48.1401 146V135.367H44.2803V134.022H53.4941V135.367H49.6343V146H48.1401ZM57.2033 146.158C54.6467 146.158 53.1027 144.365 53.1027 141.559V141.551C53.1027 138.787 54.6799 136.894 57.112 136.894C59.5441 136.894 61.0217 138.704 61.0217 141.376V141.941H54.5803C54.6218 143.792 55.6428 144.871 57.2365 144.871C58.4484 144.871 59.1955 144.298 59.4362 143.759L59.4694 143.684H60.9138L60.8972 143.75C60.59 144.962 59.3117 146.158 57.2033 146.158ZM57.1037 138.181C55.7756 138.181 54.7629 139.085 54.6052 140.787H59.5524C59.403 139.019 58.4235 138.181 57.1037 138.181ZM62.8549 146V137.052H64.2992V138.396H64.432C64.8803 137.45 65.7187 136.894 67.0385 136.894C69.0473 136.894 70.1679 138.081 70.1679 140.206V146H68.7235V140.555C68.7235 138.944 68.0595 138.172 66.6318 138.172C65.204 138.172 64.2992 139.135 64.2992 140.704V146H62.8549ZM72.4576 146V133.499H73.902V138.396H74.0348C74.483 137.45 75.3214 136.894 76.6412 136.894C78.65 136.894 79.7706 138.081 79.7706 140.206V146H78.3263V140.555C78.3263 138.944 77.6622 138.172 76.2345 138.172C74.8068 138.172 73.902 139.135 73.902 140.704V146H72.4576ZM84.4344 146.158C82.7327 146.158 81.4461 145.128 81.4461 143.501V143.485C81.4461 141.891 82.6248 140.97 84.7083 140.845L87.2733 140.688V139.874C87.2733 138.77 86.6009 138.172 85.2645 138.172C84.1937 138.172 83.4881 138.571 83.2557 139.268L83.2474 139.293H81.8031L81.8114 139.243C82.0438 137.84 83.4051 136.894 85.3143 136.894C87.4974 136.894 88.7176 138.015 88.7176 139.874V146H87.2733V144.68H87.1405C86.576 145.635 85.638 146.158 84.4344 146.158ZM82.9237 143.468C82.9237 144.373 83.6956 144.904 84.7332 144.904C86.2025 144.904 87.2733 143.941 87.2733 142.663V141.85L84.8826 141.999C83.5213 142.082 82.9237 142.563 82.9237 143.452V143.468ZM98.9832 146.158C96.4763 146.158 94.8743 144.34 94.8743 141.501V141.484C94.8743 138.704 96.468 136.894 98.9749 136.894C101.15 136.894 102.453 138.147 102.719 139.741L102.727 139.791H101.291L101.282 139.766C101.058 138.886 100.261 138.172 98.9749 138.172C97.3645 138.172 96.3518 139.467 96.3518 141.484V141.501C96.3518 143.56 97.3811 144.879 98.9749 144.879C100.178 144.879 100.942 144.348 101.274 143.352L101.291 143.302L102.719 143.294L102.702 143.385C102.337 145.004 101.133 146.158 98.9832 146.158ZM107.424 146.158C105.39 146.158 104.344 144.962 104.344 142.846V137.052H105.789V142.497C105.789 144.107 106.37 144.879 107.797 144.879C109.374 144.879 110.213 143.917 110.213 142.348V137.052H111.657V146H110.213V144.664H110.08C109.64 145.618 108.735 146.158 107.424 146.158ZM114.711 135.325C114.163 135.325 113.715 134.877 113.715 134.329C113.715 133.781 114.163 133.333 114.711 133.333C115.258 133.333 115.707 133.781 115.707 134.329C115.707 134.877 115.258 135.325 114.711 135.325ZM113.98 146V137.052H115.424V146H113.98ZM121.043 146.158C118.777 146.158 117.291 144.323 117.291 141.534V141.518C117.291 138.712 118.768 136.894 121.043 136.894C122.271 136.894 123.342 137.508 123.832 138.463H123.965V133.499H125.409V146H123.965V144.572H123.832C123.284 145.568 122.288 146.158 121.043 146.158ZM121.375 144.879C123.002 144.879 123.998 143.601 123.998 141.534V141.518C123.998 139.451 123.002 138.172 121.375 138.172C119.74 138.172 118.768 139.434 118.768 141.518V141.534C118.768 143.618 119.74 144.879 121.375 144.879ZM130.231 146.158C128.529 146.158 127.242 145.128 127.242 143.501V143.485C127.242 141.891 128.421 140.97 130.504 140.845L133.069 140.688V139.874C133.069 138.77 132.397 138.172 131.061 138.172C129.99 138.172 129.284 138.571 129.052 139.268L129.044 139.293H127.599L127.607 139.243C127.84 137.84 129.201 136.894 131.11 136.894C133.294 136.894 134.514 138.015 134.514 139.874V146H133.069V144.68H132.937C132.372 145.635 131.434 146.158 130.231 146.158ZM128.72 143.468C128.72 144.373 129.492 144.904 130.529 144.904C131.999 144.904 133.069 143.941 133.069 142.663V141.85L130.679 141.999C129.317 142.082 128.72 142.563 128.72 143.452V143.468ZM140.049 146.158C137.783 146.158 136.297 144.323 136.297 141.534V141.518C136.297 138.712 137.775 136.894 140.049 136.894C141.278 136.894 142.348 137.508 142.838 138.463H142.971V133.499H144.415V146H142.971V144.572H142.838C142.29 145.568 141.294 146.158 140.049 146.158ZM140.381 144.879C142.008 144.879 143.004 143.601 143.004 141.534V141.518C143.004 139.451 142.008 138.172 140.381 138.172C138.746 138.172 137.775 139.434 137.775 141.518V141.534C137.775 143.618 138.746 144.879 140.381 144.879ZM150.457 146.158C147.909 146.158 146.332 144.398 146.332 141.534V141.518C146.332 138.646 147.909 136.894 150.457 136.894C153.005 136.894 154.583 138.646 154.583 141.518V141.534C154.583 144.398 153.005 146.158 150.457 146.158ZM150.457 144.879C152.15 144.879 153.105 143.643 153.105 141.534V141.518C153.105 139.401 152.15 138.172 150.457 138.172C148.764 138.172 147.809 139.401 147.809 141.518V141.534C147.809 143.643 148.764 144.879 150.457 144.879ZM164.45 146.158C161.943 146.158 160.341 144.34 160.341 141.501V141.484C160.341 138.704 161.934 136.894 164.441 136.894C166.616 136.894 167.919 138.147 168.185 139.741L168.193 139.791H166.757L166.749 139.766C166.525 138.886 165.728 138.172 164.441 138.172C162.831 138.172 161.818 139.467 161.818 141.484V141.501C161.818 143.56 162.848 144.879 164.441 144.879C165.645 144.879 166.409 144.348 166.741 143.352L166.757 143.302L168.185 143.294L168.168 143.385C167.803 145.004 166.6 146.158 164.45 146.158ZM173.571 146.158C171.023 146.158 169.445 144.398 169.445 141.534V141.518C169.445 138.646 171.023 136.894 173.571 136.894C176.119 136.894 177.696 138.646 177.696 141.518V141.534C177.696 144.398 176.119 146.158 173.571 146.158ZM173.571 144.879C175.264 144.879 176.219 143.643 176.219 141.534V141.518C176.219 139.401 175.264 138.172 173.571 138.172C171.878 138.172 170.923 139.401 170.923 141.518V141.534C170.923 143.643 171.878 144.879 173.571 144.879ZM179.53 146V137.052H180.974V138.413H181.107C181.505 137.45 182.352 136.894 183.522 136.894C184.734 136.894 185.581 137.533 185.996 138.463H186.129C186.61 137.517 187.631 136.894 188.868 136.894C190.694 136.894 191.715 137.94 191.715 139.816V146H190.271V140.148C190.271 138.828 189.665 138.172 188.403 138.172C187.158 138.172 186.336 139.11 186.336 140.248V146H184.892V139.924C184.892 138.861 184.161 138.172 183.033 138.172C181.862 138.172 180.974 139.193 180.974 140.455V146H179.53ZM201.964 146.158C199.416 146.158 197.839 144.398 197.839 141.534V141.518C197.839 138.646 199.416 136.894 201.964 136.894C204.512 136.894 206.09 138.646 206.09 141.518V141.534C206.09 144.398 204.512 146.158 201.964 146.158ZM201.964 144.879C203.657 144.879 204.612 143.643 204.612 141.534V141.518C204.612 139.401 203.657 138.172 201.964 138.172C200.271 138.172 199.316 139.401 199.316 141.518V141.534C199.316 143.643 200.271 144.879 201.964 144.879ZM215.475 146.066C213.632 146.066 212.861 145.386 212.861 143.676V138.247H211.449V137.052H212.861V134.736H214.355V137.052H216.314V138.247H214.355V143.311C214.355 144.365 214.72 144.788 215.65 144.788C215.907 144.788 216.048 144.78 216.314 144.755V145.983C216.031 146.033 215.757 146.066 215.475 146.066ZM218.064 146V137.052H219.508V138.38H219.641C219.981 137.442 220.82 136.894 222.032 136.894C222.306 136.894 222.613 136.927 222.754 136.952V138.355C222.455 138.305 222.181 138.272 221.866 138.272C220.488 138.272 219.508 139.144 219.508 140.455V146H218.064ZM226.587 146.158C224.886 146.158 223.599 145.128 223.599 143.501V143.485C223.599 141.891 224.778 140.97 226.861 140.845L229.426 140.688V139.874C229.426 138.77 228.754 138.172 227.418 138.172C226.347 138.172 225.641 138.571 225.409 139.268L225.4 139.293H223.956L223.964 139.243C224.197 137.84 225.558 136.894 227.467 136.894C229.65 136.894 230.871 138.015 230.871 139.874V146H229.426V144.68H229.294C228.729 145.635 227.791 146.158 226.587 146.158ZM225.077 143.468C225.077 144.373 225.849 144.904 226.886 144.904C228.356 144.904 229.426 143.941 229.426 142.663V141.85L227.036 141.999C225.674 142.082 225.077 142.563 225.077 143.452V143.468ZM233.102 146V137.052H234.547V138.396H234.679C235.128 137.45 235.966 136.894 237.286 136.894C239.295 136.894 240.415 138.081 240.415 140.206V146H238.971V140.555C238.971 138.944 238.307 138.172 236.879 138.172C235.451 138.172 234.547 139.135 234.547 140.704V146H233.102ZM245.693 146.158C243.701 146.158 242.332 145.195 242.166 143.717H243.643C243.884 144.464 244.598 144.954 245.743 144.954C246.947 144.954 247.802 144.381 247.802 143.568V143.551C247.802 142.945 247.345 142.522 246.241 142.256L244.855 141.924C243.178 141.526 242.423 140.795 242.423 139.509V139.5C242.423 138.015 243.851 136.894 245.751 136.894C247.627 136.894 248.931 137.832 249.13 139.293H247.71C247.52 138.587 246.822 138.098 245.743 138.098C244.681 138.098 243.9 138.646 243.9 139.434V139.451C243.9 140.057 244.349 140.438 245.403 140.696L246.781 141.028C248.466 141.435 249.279 142.165 249.279 143.443V143.46C249.279 145.054 247.727 146.158 245.693 146.158ZM251.113 148.988V137.052H252.557V138.479H252.69C253.238 137.483 254.234 136.894 255.479 136.894C257.745 136.894 259.231 138.729 259.231 141.518V141.534C259.231 144.34 257.753 146.158 255.479 146.158C254.25 146.158 253.179 145.543 252.69 144.589H252.557V148.988H251.113ZM255.147 144.879C256.782 144.879 257.753 143.618 257.753 141.534V141.518C257.753 139.434 256.782 138.172 255.147 138.172C253.52 138.172 252.524 139.451 252.524 141.518V141.534C252.524 143.601 253.52 144.879 255.147 144.879ZM264.758 146.158C262.209 146.158 260.632 144.398 260.632 141.534V141.518C260.632 138.646 262.209 136.894 264.758 136.894C267.306 136.894 268.883 138.646 268.883 141.518V141.534C268.883 144.398 267.306 146.158 264.758 146.158ZM264.758 144.879C266.451 144.879 267.406 143.643 267.406 141.534V141.518C267.406 139.401 266.451 138.172 264.758 138.172C263.064 138.172 262.11 139.401 262.11 141.518V141.534C262.11 143.643 263.064 144.879 264.758 144.879ZM270.716 146V137.052H272.161V138.38H272.294C272.634 137.442 273.472 136.894 274.684 136.894C274.958 136.894 275.265 136.927 275.406 136.952V138.355C275.108 138.305 274.834 138.272 274.518 138.272C273.14 138.272 272.161 139.144 272.161 140.455V146H270.716ZM280.128 146.066C278.285 146.066 277.513 145.386 277.513 143.676V138.247H276.102V137.052H277.513V134.736H279.008V137.052H280.967V138.247H279.008V143.311C279.008 144.365 279.373 144.788 280.303 144.788C280.56 144.788 280.701 144.78 280.967 144.755V145.983C280.684 146.033 280.41 146.066 280.128 146.066ZM286.236 146.158C283.68 146.158 282.136 144.365 282.136 141.559V141.551C282.136 138.787 283.713 136.894 286.145 136.894C288.577 136.894 290.055 138.704 290.055 141.376V141.941H283.613C283.655 143.792 284.676 144.871 286.27 144.871C287.481 144.871 288.229 144.298 288.469 143.759L288.502 143.684H289.947L289.93 143.75C289.623 144.962 288.345 146.158 286.236 146.158ZM286.137 138.181C284.809 138.181 283.796 139.085 283.638 140.787H288.585C288.436 139.019 287.457 138.181 286.137 138.181ZM299.565 146.158C297.299 146.158 295.813 144.323 295.813 141.534V141.518C295.813 138.712 297.29 136.894 299.565 136.894C300.793 136.894 301.864 137.508 302.354 138.463H302.487V133.499H303.931V146H302.487V144.572H302.354C301.806 145.568 300.81 146.158 299.565 146.158ZM299.897 144.879C301.524 144.879 302.52 143.601 302.52 141.534V141.518C302.52 139.451 301.524 138.172 299.897 138.172C298.262 138.172 297.29 139.434 297.29 141.518V141.534C297.29 143.618 298.262 144.879 299.897 144.879ZM309.973 146.158C307.424 146.158 305.847 144.398 305.847 141.534V141.518C305.847 138.646 307.424 136.894 309.973 136.894C312.521 136.894 314.098 138.646 314.098 141.518V141.534C314.098 144.398 312.521 146.158 309.973 146.158ZM309.973 144.879C311.666 144.879 312.621 143.643 312.621 141.534V141.518C312.621 139.401 311.666 138.172 309.973 138.172C308.279 138.172 307.325 139.401 307.325 141.518V141.534C307.325 143.643 308.279 144.879 309.973 144.879ZM44.8447 168V159.052H46.2891V160.413H46.4219C46.8203 159.45 47.667 158.894 48.8374 158.894C50.0493 158.894 50.896 159.533 51.311 160.463H51.4438C51.9253 159.517 52.9463 158.894 54.1831 158.894C56.0093 158.894 57.0303 159.94 57.0303 161.816V168H55.5859V162.148C55.5859 160.828 54.98 160.172 53.7183 160.172C52.4731 160.172 51.6514 161.11 51.6514 162.248V168H50.207V161.924C50.207 160.861 49.4766 160.172 48.3477 160.172C47.1772 160.172 46.2891 161.193 46.2891 162.455V168H44.8447ZM61.6857 168.158C59.9841 168.158 58.6975 167.128 58.6975 165.501V165.485C58.6975 163.891 59.8762 162.97 61.9597 162.845L64.5246 162.688V161.874C64.5246 160.77 63.8523 160.172 62.5158 160.172C61.445 160.172 60.7395 160.571 60.507 161.268L60.4987 161.293H59.0544L59.0627 161.243C59.2951 159.84 60.6565 158.894 62.5656 158.894C64.7487 158.894 65.969 160.015 65.969 161.874V168H64.5246V166.68H64.3918C63.8274 167.635 62.8894 168.158 61.6857 168.158ZM60.175 165.468C60.175 166.373 60.947 166.904 61.9846 166.904C63.4538 166.904 64.5246 165.941 64.5246 164.663V163.85L62.134 163.999C60.7727 164.082 60.175 164.563 60.175 165.452V165.468ZM71.3798 168.066C69.537 168.066 68.7651 167.386 68.7651 165.676V160.247H67.3539V159.052H68.7651V156.736H70.2592V159.052H72.2182V160.247H70.2592V165.311C70.2592 166.365 70.6244 166.788 71.5541 166.788C71.8114 166.788 71.9526 166.78 72.2182 166.755V167.983C71.936 168.033 71.662 168.066 71.3798 168.066ZM77.4879 168.158C74.9313 168.158 73.3873 166.365 73.3873 163.559V163.551C73.3873 160.787 74.9645 158.894 77.3966 158.894C79.8287 158.894 81.3063 160.704 81.3063 163.376V163.941H74.8649C74.9064 165.792 75.9274 166.871 77.5211 166.871C78.733 166.871 79.4801 166.298 79.7208 165.759L79.754 165.684H81.1984L81.1818 165.75C80.8746 166.962 79.5963 168.158 77.4879 168.158ZM77.3883 160.181C76.0602 160.181 75.0475 161.085 74.8898 162.787H79.837C79.6876 161.019 78.7081 160.181 77.3883 160.181ZM83.1395 168V159.052H84.5838V160.38H84.7166C85.057 159.442 85.8953 158.894 87.1073 158.894C87.3812 158.894 87.6883 158.927 87.8294 158.952V160.355C87.5306 160.305 87.2567 160.272 86.9412 160.272C85.5633 160.272 84.5838 161.144 84.5838 162.455V168H83.1395ZM89.9698 157.325C89.4219 157.325 88.9737 156.877 88.9737 156.329C88.9737 155.781 89.4219 155.333 89.9698 155.333C90.5176 155.333 90.9659 155.781 90.9659 156.329C90.9659 156.877 90.5176 157.325 89.9698 157.325ZM89.2393 168V159.052H90.6836V168H89.2393ZM95.4553 168.158C93.7537 168.158 92.467 167.128 92.467 165.501V165.485C92.467 163.891 93.6458 162.97 95.7292 162.845L98.2942 162.688V161.874C98.2942 160.77 97.6218 160.172 96.2854 160.172C95.2146 160.172 94.509 160.571 94.2766 161.268L94.2683 161.293H92.824L92.8323 161.243C93.0647 159.84 94.426 158.894 96.3352 158.894C98.5183 158.894 99.7385 160.015 99.7385 161.874V168H98.2942V166.68H98.1614C97.5969 167.635 96.6589 168.158 95.4553 168.158ZM93.9446 165.468C93.9446 166.373 94.7166 166.904 95.7542 166.904C97.2234 166.904 98.2942 165.941 98.2942 164.663V163.85L95.9036 163.999C94.5422 164.082 93.9446 164.563 93.9446 165.452V165.468ZM102.053 168V155.499H103.498V168H102.053ZM107.041 168.083C106.451 168.083 105.962 167.593 105.962 167.004C105.962 166.406 106.451 165.925 107.041 165.925C107.638 165.925 108.12 166.406 108.12 167.004C108.12 167.593 107.638 168.083 107.041 168.083Z" fill="#106C49"/>
<mask id="mask0_20_276" style="mask-type:alpha" maskUnits="userSpaceOnUse" x="0" y="0" width="353" height="47">
<path d="M0 32C0 20.799 0 15.1984 2.17987 10.9202C4.09734 7.15695 7.15695 4.09734 10.9202 2.17987C15.1984 0 20.799 0 32 0H321C332.201 0 337.802 0 342.08 2.17987C345.843 4.09734 348.903 7.15695 350.82 10.9202C353 15.1984 353 20.799 353 32V47H0V32Z" fill="#E1ECD6"/>
</mask>
<g mask="url(#mask0_20_276)">
<rect x="-21" y="-6" width="442" height="108" fill="#106C49"/>
<path d="M22.3926 34.2686C17.7627 34.2686 14.9268 31.25 14.9268 26.2012V26.1904C14.9268 21.2275 17.7734 18.2305 22.3174 18.2305C26.0449 18.2305 28.5801 20.4004 29.0957 23.3115L29.1279 23.4619H25.873L25.8301 23.3545C25.3145 21.8506 24.0791 20.9805 22.3281 20.9805C19.7715 20.9805 18.2354 22.8711 18.2354 26.1582V26.1689C18.2354 29.5312 19.8682 31.5186 22.4463 31.5186C24.5625 31.5186 26.0127 30.2617 26.0986 28.3496L26.1094 28.124H22.5645V25.707H29.2676V27.4902C29.2676 31.7119 26.7109 34.2686 22.3926 34.2686ZM34.8168 34.1826C32.5072 34.1826 30.9496 32.7324 30.9496 30.7021V30.6807C30.9496 28.5859 32.5717 27.3613 35.4291 27.1787L38.2758 27.0068V26.2979C38.2758 25.2773 37.6098 24.6436 36.3852 24.6436C35.2143 24.6436 34.5053 25.1914 34.3549 25.9326L34.3334 26.0293H31.4652L31.476 25.9004C31.6479 23.7734 33.474 22.248 36.5141 22.248C39.4896 22.248 41.4125 23.7842 41.4125 26.1045V34H38.2758V32.2812H38.2113C37.5561 33.4629 36.3314 34.1826 34.8168 34.1826ZM34.0541 30.541C34.0541 31.3896 34.7523 31.8945 35.8373 31.8945C37.2445 31.8945 38.2758 30.9922 38.2758 29.7891V28.9619L35.9018 29.1123C34.6879 29.1875 34.0541 29.7031 34.0541 30.5195V30.541ZM43.7928 34V22.4844H46.9295V24.4932H46.9939C47.3377 23.0752 48.2723 22.248 49.615 22.248C49.9588 22.248 50.2811 22.3018 50.5174 22.3662V25.127C50.2596 25.0195 49.8299 24.9551 49.3787 24.9551C47.8318 24.9551 46.9295 25.8789 46.9295 27.5547V34H43.7928ZM52.1564 34V22.4844H55.2932V24.4932H55.3576C55.7014 23.0752 56.6359 22.248 57.9787 22.248C58.3225 22.248 58.6447 22.3018 58.8811 22.3662V25.127C58.6232 25.0195 58.1936 24.9551 57.7424 24.9551C56.1955 24.9551 55.2932 25.8789 55.2932 27.5547V34H52.1564ZM63.6676 34.1826C61.358 34.1826 59.8004 32.7324 59.8004 30.7021V30.6807C59.8004 28.5859 61.4225 27.3613 64.2799 27.1787L67.1266 27.0068V26.2979C67.1266 25.2773 66.4605 24.6436 65.2359 24.6436C64.065 24.6436 63.3561 25.1914 63.2057 25.9326L63.1842 26.0293H60.316L60.3268 25.9004C60.4986 23.7734 62.3248 22.248 65.3648 22.248C68.3404 22.248 70.2633 23.7842 70.2633 26.1045V34H67.1266V32.2812H67.0621C66.4068 33.4629 65.1822 34.1826 63.6676 34.1826ZM62.9049 30.541C62.9049 31.3896 63.6031 31.8945 64.6881 31.8945C66.0953 31.8945 67.1266 30.9922 67.1266 29.7891V28.9619L64.7525 29.1123C63.5387 29.1875 62.9049 29.7031 62.9049 30.5195V30.541ZM73.4814 34V24.8477H71.9131V22.4844H73.4814V21.5605C73.4814 19.3047 74.5557 18.2627 77.2734 18.2627C77.8535 18.2627 78.4873 18.3164 78.8525 18.3916V20.4648C78.6377 20.4219 78.3369 20.4111 78.0469 20.4111C77.0049 20.4111 76.543 20.8516 76.543 21.6787V22.4844H78.8311V24.8477H76.6182V34H73.4814ZM83.6605 34.1826C81.351 34.1826 79.7934 32.7324 79.7934 30.7021V30.6807C79.7934 28.5859 81.4154 27.3613 84.2729 27.1787L87.1195 27.0068V26.2979C87.1195 25.2773 86.4535 24.6436 85.2289 24.6436C84.058 24.6436 83.349 25.1914 83.1986 25.9326L83.1771 26.0293H80.309L80.3197 25.9004C80.4916 23.7734 82.3178 22.248 85.3578 22.248C88.3334 22.248 90.2562 23.7842 90.2562 26.1045V34H87.1195V32.2812H87.0551C86.3998 33.4629 85.1752 34.1826 83.6605 34.1826ZM82.8979 30.541C82.8979 31.3896 83.5961 31.8945 84.6811 31.8945C86.0883 31.8945 87.1195 30.9922 87.1195 29.7891V28.9619L84.7455 29.1123C83.5316 29.1875 82.8979 29.7031 82.8979 30.5195V30.541ZM101.613 34.2363C98.7121 34.2363 96.9289 31.9805 96.9289 28.2422V28.2314C96.9289 24.4824 98.7121 22.248 101.613 22.248C103.245 22.248 104.534 23.0859 105.157 24.4824H105.222V18.499H108.359V34H105.222V32.0342H105.157C104.545 33.3984 103.278 34.2363 101.613 34.2363ZM102.665 31.6367C104.191 31.6367 105.233 30.3262 105.233 28.2422V28.2314C105.233 26.1582 104.18 24.8477 102.665 24.8477C101.108 24.8477 100.119 26.126 100.119 28.2314V28.2422C100.119 30.3369 101.097 31.6367 102.665 31.6367ZM116.046 34.2363C112.522 34.2363 110.384 31.9482 110.384 28.2637V28.2529C110.384 24.5898 112.544 22.248 115.917 22.248C119.29 22.248 121.406 24.5361 121.406 28.0166V28.9834H113.478C113.51 30.8203 114.509 31.8945 116.11 31.8945C117.399 31.8945 118.183 31.1855 118.409 30.541L118.43 30.4766H121.309L121.277 30.5947C120.922 32.292 119.333 34.2363 116.046 34.2363ZM115.97 24.5898C114.681 24.5898 113.714 25.4492 113.51 27.0068H118.398C118.205 25.417 117.27 24.5898 115.97 24.5898ZM132.558 34L127.37 18.499H130.957L134.502 30.6807H134.567L138.101 18.499H141.7L136.511 34H132.558ZM144.832 21.002C143.887 21.002 143.156 20.2607 143.156 19.3691C143.156 18.4775 143.887 17.7363 144.832 17.7363C145.777 17.7363 146.508 18.4775 146.508 19.3691C146.508 20.2607 145.777 21.002 144.832 21.002ZM143.263 34V22.4844H146.4V34H143.263ZM153.12 34.2363C150.22 34.2363 148.437 31.9805 148.437 28.2422V28.2314C148.437 24.4824 150.22 22.248 153.12 22.248C154.753 22.248 156.042 23.0859 156.665 24.4824H156.73V18.499H159.866V34H156.73V32.0342H156.665C156.053 33.3984 154.785 34.2363 153.12 34.2363ZM154.173 31.6367C155.698 31.6367 156.74 30.3262 156.74 28.2422V28.2314C156.74 26.1582 155.688 24.8477 154.173 24.8477C152.615 24.8477 151.627 26.126 151.627 28.2314V28.2422C151.627 30.3369 152.605 31.6367 154.173 31.6367ZM162.311 34V22.4844H165.448V24.4932H165.512C165.856 23.0752 166.791 22.248 168.133 22.248C168.477 22.248 168.799 22.3018 169.036 22.3662V25.127C168.778 25.0195 168.348 24.9551 167.897 24.9551C166.35 24.9551 165.448 25.8789 165.448 27.5547V34H162.311ZM175.573 34.2363C172.071 34.2363 169.869 31.9912 169.869 28.2422V28.2207C169.869 24.5146 172.125 22.248 175.562 22.248C179.011 22.248 181.277 24.4932 181.277 28.2207V28.2422C181.277 32.002 179.054 34.2363 175.573 34.2363ZM175.584 31.7764C177.109 31.7764 178.087 30.4873 178.087 28.2422V28.2207C178.087 25.9971 177.088 24.708 175.562 24.708C174.048 24.708 173.06 25.9971 173.06 28.2207V28.2422C173.06 30.498 174.037 31.7764 175.584 31.7764Z" fill="#FCF8F4"/>
<path d="M259.845 32V20.022H264.419C266.727 20.022 268.237 21.4331 268.237 23.583V23.5996C268.237 25.2598 267.333 26.5547 265.83 27.0278L268.603 32H266.851L264.286 27.2603H261.339V32H259.845ZM261.339 25.9321H264.286C265.822 25.9321 266.693 25.1104 266.693 23.6494V23.6328C266.693 22.2051 265.764 21.3501 264.22 21.3501H261.339V25.9321ZM273.764 32.1577C271.208 32.1577 269.664 30.3647 269.664 27.5591V27.5508C269.664 24.7866 271.241 22.894 273.673 22.894C276.105 22.894 277.583 24.7036 277.583 27.3765V27.9409H271.141C271.183 29.792 272.204 30.8711 273.798 30.8711C275.01 30.8711 275.757 30.2983 275.997 29.7588L276.031 29.6841H277.475L277.458 29.7505C277.151 30.9624 275.873 32.1577 273.764 32.1577ZM273.665 24.1807C272.337 24.1807 271.324 25.0854 271.166 26.7871H276.114C275.964 25.019 274.985 24.1807 273.665 24.1807ZM283.077 32.1577C280.57 32.1577 278.968 30.3398 278.968 27.501V27.4844C278.968 24.7036 280.562 22.894 283.068 22.894C285.243 22.894 286.546 24.1475 286.812 25.7412L286.82 25.791H285.384L285.376 25.7661C285.152 24.8862 284.355 24.1724 283.068 24.1724C281.458 24.1724 280.445 25.4673 280.445 27.4844V27.501C280.445 29.5596 281.475 30.8794 283.068 30.8794C284.272 30.8794 285.036 30.3481 285.368 29.3521L285.384 29.3022L286.812 29.2939L286.795 29.3853C286.43 31.0039 285.227 32.1577 283.077 32.1577ZM289.284 21.3252C288.737 21.3252 288.288 20.877 288.288 20.3291C288.288 19.7812 288.737 19.333 289.284 19.333C289.832 19.333 290.28 19.7812 290.28 20.3291C290.28 20.877 289.832 21.3252 289.284 21.3252ZM288.554 32V23.0518H289.998V32H288.554ZM295.974 32.1577C293.467 32.1577 291.865 30.3398 291.865 27.501V27.4844C291.865 24.7036 293.458 22.894 295.965 22.894C298.14 22.894 299.443 24.1475 299.709 25.7412L299.717 25.791H298.281L298.273 25.7661C298.049 24.8862 297.252 24.1724 295.965 24.1724C294.355 24.1724 293.342 25.4673 293.342 27.4844V27.501C293.342 29.5596 294.371 30.8794 295.965 30.8794C297.169 30.8794 297.933 30.3481 298.265 29.3521L298.281 29.3022L299.709 29.2939L299.692 29.3853C299.327 31.0039 298.123 32.1577 295.974 32.1577ZM301.501 32V19.499H302.945V32H301.501ZM309.194 21.8066H307.932L309.402 18.9844H311.112L309.194 21.8066ZM307.766 32.1577C306.065 32.1577 304.778 31.1284 304.778 29.5015V29.4849C304.778 27.8911 305.957 26.9697 308.04 26.8452L310.605 26.6875V25.874C310.605 24.77 309.933 24.1724 308.596 24.1724C307.526 24.1724 306.82 24.5708 306.588 25.2681L306.579 25.293H305.135L305.143 25.2432C305.376 23.8403 306.737 22.894 308.646 22.894C310.829 22.894 312.05 24.0146 312.05 25.874V32H310.605V30.6802H310.472C309.908 31.6348 308.97 32.1577 307.766 32.1577ZM306.256 29.4683C306.256 30.373 307.028 30.9043 308.065 30.9043C309.534 30.9043 310.605 29.9414 310.605 28.6631V27.8496L308.215 27.999C306.853 28.082 306.256 28.5635 306.256 29.4517V29.4683ZM316.481 32L313.169 23.0518H314.696L317.145 30.4229H317.278L319.727 23.0518H321.254L317.942 32H316.481ZM326.075 32.1577C323.519 32.1577 321.975 30.3647 321.975 27.5591V27.5508C321.975 24.7866 323.552 22.894 325.984 22.894C328.416 22.894 329.894 24.7036 329.894 27.3765V27.9409H323.452C323.494 29.792 324.515 30.8711 326.109 30.8711C327.321 30.8711 328.068 30.2983 328.308 29.7588L328.342 29.6841H329.786L329.769 29.7505C329.462 30.9624 328.184 32.1577 326.075 32.1577ZM325.976 24.1807C324.648 24.1807 323.635 25.0854 323.477 26.7871H328.425C328.275 25.019 327.296 24.1807 325.976 24.1807ZM331.81 32V19.499H333.254V32H331.81Z" fill="#FCF8F4"/>
</g>
</svg>
