<svg width="353" height="168" viewBox="0 0 353 168" fill="none" xmlns="http://www.w3.org/2000/svg">
<rect width="353" height="168" rx="20" fill="#FCF8F4"/>
<path d="M173.486 57.3281C168.947 57.3281 166.254 53.4043 166.254 47.1426V47.1152C166.254 40.8535 168.947 36.9434 173.486 36.9434C178.025 36.9434 180.746 40.8535 180.746 47.1152V47.1426C180.746 53.4043 178.025 57.3281 173.486 57.3281ZM173.486 55.1816C176.494 55.1816 178.271 52.0918 178.271 47.1426V47.1152C178.271 42.166 176.494 39.1035 173.486 39.1035C170.479 39.1035 168.729 42.166 168.729 47.1152V47.1426C168.729 52.0918 170.479 55.1816 173.486 55.1816Z" fill="#106C49"/>
<path d="M141.456 95.2578C137.148 95.2578 134.377 92.1211 134.377 87.2441V87.2334C134.377 82.3564 137.137 79.2412 141.456 79.2412C144.678 79.2412 147.181 81.1963 147.772 84.1289L147.794 84.2363H145.838L145.763 84C145.162 82.1201 143.636 81.0244 141.456 81.0244C138.362 81.0244 136.364 83.4629 136.364 87.2334V87.2441C136.364 91.0146 138.373 93.4746 141.456 93.4746C143.626 93.4746 145.129 92.4004 145.806 90.3594L145.838 90.2627H147.794L147.772 90.3701C147.181 93.335 144.7 95.2578 141.456 95.2578ZM150.142 95V83.8281H152.011V85.7188H152.054C152.43 84.4297 153.396 83.6133 154.653 83.6133C154.976 83.6133 155.255 83.667 155.405 83.6885V85.5039C155.255 85.4502 154.857 85.3965 154.406 85.3965C152.956 85.3965 152.011 86.4062 152.011 88.1035V95H150.142ZM161.803 82.5498H160.364L162.201 79.3271H164.156L161.803 82.5498ZM161.341 95.2148C158.129 95.2148 156.196 92.9697 156.196 89.457V89.4463C156.196 85.9873 158.172 83.6133 161.223 83.6133C164.274 83.6133 166.132 85.8799 166.132 89.2314V89.9189H158.086C158.129 92.2178 159.397 93.5605 161.384 93.5605C162.802 93.5605 163.801 92.8516 164.123 91.8955L164.156 91.7988H165.993L165.971 91.9062C165.606 93.7539 163.78 95.2148 161.341 95.2148ZM161.212 85.2676C159.59 85.2676 158.323 86.374 158.119 88.458H164.231C164.048 86.2881 162.845 85.2676 161.212 85.2676ZM172.573 95.2148C169.716 95.2148 167.825 92.9375 167.825 89.4141V89.4033C167.825 85.8799 169.737 83.6133 172.541 83.6133C174.12 83.6133 175.42 84.4082 176.118 85.6973H176.161V79.499H178.03V95H176.161V93.1094H176.118C175.42 94.4092 174.174 95.2148 172.573 95.2148ZM172.938 93.5605C174.829 93.5605 176.172 91.917 176.172 89.4141V89.4033C176.172 86.9111 174.818 85.2676 172.938 85.2676C170.962 85.2676 169.737 86.8574 169.737 89.4033V89.4141C169.737 91.9814 170.962 93.5605 172.938 93.5605ZM181.957 81.9375C181.313 81.9375 180.786 81.4111 180.786 80.7666C180.786 80.1113 181.313 79.5957 181.957 79.5957C182.613 79.5957 183.128 80.1113 183.128 80.7666C183.128 81.4111 182.613 81.9375 181.957 81.9375ZM181.023 95V83.8281H182.892V95H181.023ZM189.419 95.2148C187.367 95.2148 186.357 94.291 186.357 92.1533V85.375H184.724V83.8281H186.357V80.8096H188.291V83.8281H190.418V85.375H188.291V92.1426C188.291 93.335 188.817 93.668 189.816 93.668C190.042 93.668 190.256 93.6357 190.418 93.625V95.1396C190.181 95.1719 189.784 95.2148 189.419 95.2148ZM197.084 95.2148C193.979 95.2148 191.906 92.9697 191.906 89.4141V89.3926C191.906 85.8369 193.99 83.6133 197.073 83.6133C200.156 83.6133 202.251 85.8262 202.251 89.3926V89.4141C202.251 92.9805 200.167 95.2148 197.084 95.2148ZM197.095 93.5605C199.061 93.5605 200.339 92.0352 200.339 89.4141V89.3926C200.339 86.7715 199.05 85.2676 197.073 85.2676C195.129 85.2676 193.818 86.7822 193.818 89.3926V89.4141C193.818 92.0459 195.118 93.5605 197.095 93.5605ZM208.455 95.2148C205.824 95.2148 204.234 93.8721 204.008 91.874L203.997 91.7773H205.867L205.888 91.8848C206.114 93.002 206.941 93.6572 208.466 93.6572C209.981 93.6572 210.883 93.0234 210.883 92.0137V92.0029C210.883 91.1973 210.464 90.7461 209.197 90.4346L207.424 90.0049C205.319 89.5 204.298 88.5225 204.298 86.9111V86.9004C204.298 84.9775 205.985 83.6133 208.402 83.6133C210.851 83.6133 212.409 85.042 212.548 86.9111L212.559 87.0508H210.776L210.765 86.9756C210.615 85.8906 209.787 85.1709 208.402 85.1709C207.048 85.1709 206.21 85.8262 206.21 86.8145V86.8252C206.21 87.5879 206.715 88.1143 207.951 88.415L209.723 88.8447C211.979 89.3926 212.795 90.2842 212.795 91.874V91.8848C212.795 93.8398 210.948 95.2148 208.455 95.2148Z" fill="#106C49"/>
<path d="M84.6643 155.282C82.0412 155.282 80.3479 153.904 80.1735 151.954L80.1652 151.862H81.6594L81.6677 151.954C81.7756 153.149 83.0207 153.904 84.7473 153.904C86.3742 153.904 87.5612 153.066 87.5612 151.846V151.837C87.5612 150.841 86.8723 150.161 85.2287 149.795L83.9006 149.505C81.5017 148.974 80.4641 147.87 80.4641 146.135V146.126C80.4724 144.143 82.2072 142.74 84.6809 142.74C87.0715 142.74 88.74 144.151 88.8645 145.936L88.8728 146.052H87.3786L87.362 145.944C87.196 144.89 86.1999 144.109 84.6394 144.118C83.1452 144.126 81.9914 144.832 81.9914 146.085V146.093C81.9914 147.048 82.6472 147.695 84.2741 148.052L85.6023 148.351C88.1008 148.907 89.0886 149.912 89.0886 151.638V151.646C89.0886 153.888 87.3371 155.282 84.6643 155.282ZM93.9848 155.158C91.9511 155.158 90.9052 153.962 90.9052 151.846V146.052H92.3495V151.497C92.3495 153.107 92.9306 153.879 94.3583 153.879C95.9355 153.879 96.7738 152.917 96.7738 151.348V146.052H98.2182V155H96.7738V153.664H96.641C96.2011 154.618 95.2963 155.158 93.9848 155.158ZM102.965 155.158C101.263 155.158 99.9767 154.128 99.9767 152.501V152.485C99.9767 150.891 101.155 149.97 103.239 149.845L105.804 149.688V148.874C105.804 147.77 105.131 147.172 103.795 147.172C102.724 147.172 102.019 147.571 101.786 148.268L101.778 148.293H100.334L100.342 148.243C100.574 146.84 101.936 145.894 103.845 145.894C106.028 145.894 107.248 147.015 107.248 148.874V155H105.804V153.68H105.671C105.107 154.635 104.169 155.158 102.965 155.158ZM101.454 152.468C101.454 153.373 102.226 153.904 103.264 153.904C104.733 153.904 105.804 152.941 105.804 151.663V150.85L103.413 150.999C102.052 151.082 101.454 151.563 101.454 152.452V152.468ZM113.853 157.988V146.052H115.297V147.479H115.43C115.978 146.483 116.974 145.894 118.219 145.894C120.485 145.894 121.971 147.729 121.971 150.518V150.534C121.971 153.34 120.494 155.158 118.219 155.158C116.991 155.158 115.92 154.543 115.43 153.589H115.297V157.988H113.853ZM117.887 153.879C119.523 153.879 120.494 152.618 120.494 150.534V150.518C120.494 148.434 119.523 147.172 117.887 147.172C116.26 147.172 115.264 148.451 115.264 150.518V150.534C115.264 152.601 116.26 153.879 117.887 153.879ZM127.473 155.158C124.917 155.158 123.373 153.365 123.373 150.559V150.551C123.373 147.787 124.95 145.894 127.382 145.894C129.814 145.894 131.292 147.704 131.292 150.376V150.941H124.85C124.892 152.792 125.913 153.871 127.507 153.871C128.719 153.871 129.466 153.298 129.706 152.759L129.74 152.684H131.184L131.167 152.75C130.86 153.962 129.582 155.158 127.473 155.158ZM127.374 147.181C126.046 147.181 125.033 148.085 124.875 149.787H129.823C129.673 148.019 128.694 147.181 127.374 147.181ZM136.811 158.154C134.652 158.154 133.274 157.183 133.05 155.714L133.067 155.706H134.561L134.569 155.714C134.727 156.395 135.524 156.876 136.811 156.876C138.413 156.876 139.367 156.121 139.367 154.801V152.991H139.234C138.67 153.979 137.657 154.535 136.429 154.535C134.113 154.535 132.677 152.742 132.677 150.235V150.219C132.677 147.712 134.121 145.894 136.462 145.894C137.724 145.894 138.703 146.517 139.251 147.529H139.351V146.052H140.795V154.875C140.795 156.876 139.251 158.154 136.811 158.154ZM136.744 153.257C138.404 153.257 139.4 152.012 139.4 150.235V150.219C139.4 148.442 138.396 147.172 136.744 147.172C135.084 147.172 134.154 148.442 134.154 150.219V150.235C134.154 152.012 135.084 153.257 136.744 153.257ZM145.533 155.158C143.832 155.158 142.545 154.128 142.545 152.501V152.485C142.545 150.891 143.724 149.97 145.807 149.845L148.372 149.688V148.874C148.372 147.77 147.7 147.172 146.363 147.172C145.293 147.172 144.587 147.571 144.355 148.268L144.346 148.293H142.902L142.91 148.243C143.143 146.84 144.504 145.894 146.413 145.894C148.596 145.894 149.817 147.015 149.817 148.874V155H148.372V153.68H148.239C147.675 154.635 146.737 155.158 145.533 155.158ZM144.023 152.468C144.023 153.373 144.795 153.904 145.832 153.904C147.301 153.904 148.372 152.941 148.372 151.663V150.85L145.982 150.999C144.62 151.082 144.023 151.563 144.023 152.452V152.468ZM155.352 155.158C153.086 155.158 151.6 153.323 151.6 150.534V150.518C151.6 147.712 153.078 145.894 155.352 145.894C156.58 145.894 157.651 146.508 158.141 147.463H158.274V142.499H159.718V155H158.274V153.572H158.141C157.593 154.568 156.597 155.158 155.352 155.158ZM155.684 153.879C157.311 153.879 158.307 152.601 158.307 150.534V150.518C158.307 148.451 157.311 147.172 155.684 147.172C154.049 147.172 153.078 148.434 153.078 150.518V150.534C153.078 152.618 154.049 153.879 155.684 153.879ZM164.54 155.158C162.838 155.158 161.551 154.128 161.551 152.501V152.485C161.551 150.891 162.73 149.97 164.814 149.845L167.379 149.688V148.874C167.379 147.77 166.706 147.172 165.37 147.172C164.299 147.172 163.593 147.571 163.361 148.268L163.353 148.293H161.908L161.917 148.243C162.149 146.84 163.51 145.894 165.42 145.894C167.603 145.894 168.823 147.015 168.823 148.874V155H167.379V153.68H167.246C166.681 154.635 165.743 155.158 164.54 155.158ZM163.029 152.468C163.029 153.373 163.801 153.904 164.838 153.904C166.308 153.904 167.379 152.941 167.379 151.663V150.85L164.988 150.999C163.627 151.082 163.029 151.563 163.029 152.452V152.468ZM179.08 155.158C176.523 155.158 174.979 153.365 174.979 150.559V150.551C174.979 147.787 176.557 145.894 178.989 145.894C181.421 145.894 182.898 147.704 182.898 150.376V150.941H176.457C176.499 152.792 177.52 153.871 179.113 153.871C180.325 153.871 181.072 153.298 181.313 152.759L181.346 152.684H182.791L182.774 152.75C182.467 153.962 181.188 155.158 179.08 155.158ZM178.98 147.181C177.652 147.181 176.64 148.085 176.482 149.787H181.429C181.28 148.019 180.3 147.181 178.98 147.181ZM187.803 155.158C185.811 155.158 184.441 154.195 184.275 152.717H185.753C185.993 153.464 186.707 153.954 187.853 153.954C189.056 153.954 189.911 153.381 189.911 152.568V152.551C189.911 151.945 189.455 151.522 188.351 151.256L186.965 150.924C185.288 150.526 184.532 149.795 184.532 148.509V148.5C184.532 147.015 185.96 145.894 187.861 145.894C189.737 145.894 191.04 146.832 191.239 148.293H189.82C189.629 147.587 188.932 147.098 187.853 147.098C186.79 147.098 186.01 147.646 186.01 148.434V148.451C186.01 149.057 186.458 149.438 187.512 149.696L188.89 150.028C190.575 150.435 191.389 151.165 191.389 152.443V152.46C191.389 154.054 189.837 155.158 187.803 155.158ZM196.318 155.066C194.476 155.066 193.704 154.386 193.704 152.676V147.247H192.292V146.052H193.704V143.736H195.198V146.052H197.157V147.247H195.198V152.311C195.198 153.365 195.563 153.788 196.493 153.788C196.75 153.788 196.891 153.78 197.157 153.755V154.983C196.874 155.033 196.601 155.066 196.318 155.066ZM202.792 144.807H201.53L202.999 141.984H204.709L202.792 144.807ZM201.364 155.158C199.662 155.158 198.376 154.128 198.376 152.501V152.485C198.376 150.891 199.554 149.97 201.638 149.845L204.203 149.688V148.874C204.203 147.77 203.53 147.172 202.194 147.172C201.123 147.172 200.418 147.571 200.185 148.268L200.177 148.293H198.733L198.741 148.243C198.973 146.84 200.335 145.894 202.244 145.894C204.427 145.894 205.647 147.015 205.647 148.874V155H204.203V153.68H204.07C203.505 154.635 202.568 155.158 201.364 155.158ZM199.853 152.468C199.853 153.373 200.625 153.904 201.663 153.904C203.132 153.904 204.203 152.941 204.203 151.663V150.85L201.812 150.999C200.451 151.082 199.853 151.563 199.853 152.452V152.468ZM212.202 158.005V145.985H214.003V147.405H214.136C214.659 146.417 215.647 145.828 216.909 145.828C219.183 145.828 220.644 147.646 220.644 150.484V150.501C220.644 153.356 219.2 155.149 216.909 155.149C215.672 155.149 214.618 154.543 214.136 153.572H214.003V158.005H212.202ZM216.402 153.614C217.905 153.614 218.81 152.435 218.81 150.501V150.484C218.81 148.542 217.905 147.372 216.402 147.372C214.9 147.372 213.97 148.559 213.97 150.484V150.501C213.97 152.427 214.9 153.614 216.402 153.614ZM226.221 155.174C223.573 155.174 221.954 153.406 221.954 150.501V150.484C221.954 147.587 223.581 145.811 226.221 145.811C228.852 145.811 230.479 147.579 230.479 150.484V150.501C230.479 153.406 228.861 155.174 226.221 155.174ZM226.221 153.672C227.765 153.672 228.645 152.493 228.645 150.501V150.484C228.645 148.484 227.765 147.313 226.221 147.313C224.669 147.313 223.797 148.484 223.797 150.484V150.501C223.797 152.501 224.669 153.672 226.221 153.672ZM232.304 155V142.449H234.105V155H232.304ZM239.383 155.174C237.35 155.174 236.296 153.954 236.296 151.821V145.985H238.097V151.397C238.097 152.892 238.645 153.63 239.965 153.63C241.409 153.63 242.181 152.726 242.181 151.273V145.985H243.974V155H242.181V153.639H242.04C241.608 154.61 240.695 155.174 239.383 155.174ZM247.7 144.74H246.28L247.741 141.885H249.659L247.7 144.74ZM246.197 155V145.985H247.99V155H246.197ZM253.492 155.149C251.226 155.149 249.757 153.332 249.757 150.501V150.484C249.757 147.629 251.201 145.828 253.492 145.828C254.729 145.828 255.783 146.442 256.265 147.413H256.406V142.449H258.199V155H256.406V153.581H256.265C255.742 154.568 254.754 155.149 253.492 155.149ZM254.007 153.614C255.509 153.614 256.431 152.427 256.431 150.501V150.484C256.431 148.559 255.501 147.372 254.007 147.372C252.496 147.372 251.591 148.55 251.591 150.484V150.501C251.591 152.435 252.496 153.614 254.007 153.614ZM262.946 155.149C261.227 155.149 259.957 154.104 259.957 152.468V152.452C259.957 150.841 261.169 149.903 263.319 149.771L265.76 149.629V148.833C265.76 147.845 265.137 147.297 263.917 147.297C262.921 147.297 262.265 147.662 262.049 148.301L262.041 148.334H260.306L260.314 148.276C260.53 146.799 261.949 145.811 264 145.811C266.266 145.811 267.544 146.94 267.544 148.833V155H265.76V153.722H265.618C265.087 154.635 264.141 155.149 262.946 155.149ZM261.75 152.394C261.75 153.224 262.456 153.713 263.427 153.713C264.772 153.713 265.76 152.833 265.76 151.671V150.899L263.56 151.041C262.315 151.115 261.75 151.563 261.75 152.377V152.394Z" fill="#106C49"/>
<path d="M250.5 46.2834C180.5 -7.42029 95 12.147 95 73.5961C95 146.43 191.5 139.402 250.5 105.221L223.5 87.9713C223.5 87.9713 265 78.1125 265 73.5961C265 69.0797 223.5 55.8668 223.5 55.8668L250.5 46.2834Z" stroke="#E1ECD6"/>
</svg>
