<svg width="38" height="45" viewBox="0 0 38 45" fill="none" xmlns="http://www.w3.org/2000/svg">
<circle cx="25.0576" cy="13.5" r="12.5" fill="#E1D2C3"/>
<path d="M24.4887 22.4223V20.7646C22.1541 20.5488 20.2217 19.1264 20.1432 16.8507V16.8409L21.85 16.8311V16.8507C22.0266 18.067 22.7819 19.0382 24.4887 19.2245V14.5063L24.2631 14.4474C21.8206 13.8589 20.5061 12.7701 20.5061 10.8475V10.8278C20.5061 8.72866 22.1639 7.29652 24.4887 7.08072V5.42296H25.6658V7.08072C27.9317 7.28671 29.6876 8.75809 29.766 10.9161V10.9259L28.0592 10.9357V10.9161C27.9317 9.60169 26.99 8.78752 25.6658 8.62076V13.1232L25.9699 13.1919C28.4908 13.8 29.9034 14.8398 29.9034 16.8899V16.9096C29.9034 19.2638 27.9808 20.588 25.6658 20.7744V22.4223H24.4887ZM22.2129 10.7297C22.2129 11.6812 22.8015 12.4267 24.4887 12.8387V8.62076C22.9977 8.82676 22.2129 9.76844 22.2129 10.7101V10.7297ZM25.7246 14.8006L25.6658 14.7908V19.2441C27.4903 19.097 28.1966 18.1749 28.1966 17.0469V17.0273C28.1966 15.9581 27.6669 15.2714 25.7246 14.8006Z" fill="#FCF8F4"/>
<circle cx="16.0572" cy="27.6998" r="12.5" transform="rotate(-17.9836 16.0572 27.6998)" fill="#DEC8B1"/>
<path d="M18.2711 36.3619L17.7593 34.7851C15.4721 35.3006 13.195 34.5444 12.4177 32.4041L12.4147 32.3947L14.0351 31.8584L14.0411 31.8771C14.5846 32.9795 15.6029 33.67 17.2838 33.3203L15.8271 28.8326L15.5943 28.8462C13.0894 29.0405 11.5031 28.4107 10.9095 26.5821L10.9034 26.5634C10.2553 24.5668 11.3899 22.6928 13.5345 21.7697L13.0226 20.193L14.1422 19.8296L14.6541 21.4063C16.8729 20.9027 18.9972 21.76 19.7382 23.7884L19.7412 23.7977L18.1208 24.334L18.1147 24.3154C17.5876 23.1045 16.4406 22.6209 15.1296 22.8711L16.5197 27.1536L16.8301 27.125C19.4157 26.9251 21.0802 27.478 21.7132 29.428L21.7192 29.4466C22.4461 31.6858 21.0263 33.539 18.8819 34.431L19.3907 35.9984L18.2711 36.3619ZM12.4965 25.9431C12.7903 26.8481 13.5803 27.3755 15.3122 27.2465L14.01 23.2346C12.6554 23.8908 12.1997 25.0288 12.4905 25.9245L12.4965 25.9431ZM17.0935 28.7309L17.0345 28.7397L18.4095 32.9755C20.0994 32.2722 20.4865 31.1772 20.1382 30.1042L20.1322 30.0856C19.802 29.0686 19.0862 28.579 17.0935 28.7309Z" fill="#FCF8F4"/>
</svg>
